<svg width="193" height="78" viewBox="0 0 193 78" fill="none" xmlns="http://www.w3.org/2000/svg">
<path d="M13.775 55.7015V69.0015H10.716V58.2095H4.712V69.0015H1.653V55.7015H13.775ZM22.8859 66.7785C23.4179 66.7785 23.8866 66.7025 24.2919 66.5505C24.7099 66.3858 25.0963 66.1325 25.4509 65.7905L27.0279 67.5005C26.0653 68.6025 24.6593 69.1535 22.8099 69.1535C21.6573 69.1535 20.6376 68.9318 19.7509 68.4885C18.8643 68.0325 18.1803 67.4055 17.6989 66.6075C17.2176 65.8095 16.9769 64.9038 16.9769 63.8905C16.9769 62.8898 17.2113 61.9905 17.6799 61.1925C18.1613 60.3818 18.8136 59.7548 19.6369 59.3115C20.4729 58.8555 21.4103 58.6275 22.4489 58.6275C23.4243 58.6275 24.3109 58.8365 25.1089 59.2545C25.9069 59.6598 26.5403 60.2551 27.0089 61.0405C27.4903 61.8131 27.7309 62.7315 27.7309 63.7955L20.1689 65.2585C20.3843 65.7651 20.7199 66.1451 21.1759 66.3985C21.6446 66.6518 22.2146 66.7785 22.8859 66.7785ZM22.4489 60.8695C21.7016 60.8695 21.0936 61.1101 20.6249 61.5915C20.1563 62.0728 19.9093 62.7378 19.8839 63.5865L24.8619 62.6175C24.7226 62.0855 24.4376 61.6611 24.0069 61.3445C23.5763 61.0278 23.0569 60.8695 22.4489 60.8695ZM38.9193 61.2115H33.6753V69.0015H30.7303V58.7795H38.9193V61.2115ZM51.3303 58.7795V69.0015H48.4993V67.8235C47.7646 68.7101 46.7006 69.1535 45.3073 69.1535C44.3446 69.1535 43.4706 68.9381 42.6853 68.5075C41.9126 68.0768 41.3046 67.4625 40.8613 66.6645C40.4179 65.8665 40.1963 64.9418 40.1963 63.8905C40.1963 62.8391 40.4179 61.9145 40.8613 61.1165C41.3046 60.3185 41.9126 59.7041 42.6853 59.2735C43.4706 58.8428 44.3446 58.6275 45.3073 58.6275C46.6119 58.6275 47.6316 59.0391 48.3663 59.8625V58.7795H51.3303ZM45.8203 66.7215C46.5676 66.7215 47.1883 66.4681 47.6823 65.9615C48.1763 65.4421 48.4233 64.7518 48.4233 63.8905C48.4233 63.0291 48.1763 62.3451 47.6823 61.8385C47.1883 61.3191 46.5676 61.0595 45.8203 61.0595C45.0603 61.0595 44.4333 61.3191 43.9393 61.8385C43.4453 62.3451 43.1983 63.0291 43.1983 63.8905C43.1983 64.7518 43.4453 65.4421 43.9393 65.9615C44.4333 66.4681 45.0603 66.7215 45.8203 66.7215ZM59.9454 69.1535C58.8561 69.1535 57.8744 68.9318 57.0004 68.4885C56.1391 68.0325 55.4614 67.4055 54.9674 66.6075C54.4861 65.8095 54.2454 64.9038 54.2454 63.8905C54.2454 62.8771 54.4861 61.9715 54.9674 61.1735C55.4614 60.3755 56.1391 59.7548 57.0004 59.3115C57.8744 58.8555 58.8561 58.6275 59.9454 58.6275C61.0221 58.6275 61.9594 58.8555 62.7574 59.3115C63.5681 59.7548 64.1571 60.3945 64.5244 61.2305L62.2254 62.4655C61.6934 61.5281 60.9271 61.0595 59.9264 61.0595C59.1538 61.0595 58.5141 61.3128 58.0074 61.8195C57.5008 62.3261 57.2474 63.0165 57.2474 63.8905C57.2474 64.7645 57.5008 65.4548 58.0074 65.9615C58.5141 66.4681 59.1538 66.7215 59.9264 66.7215C60.9398 66.7215 61.7061 66.2528 62.2254 65.3155L64.5244 66.5695C64.1571 67.3801 63.5681 68.0135 62.7574 68.4695C61.9594 68.9255 61.0221 69.1535 59.9454 69.1535ZM66.4675 62.4655H71.8445V64.8405H66.4675V62.4655ZM84.7191 59.4255C83.5791 58.7668 82.3567 58.3425 81.0521 58.1525V69.0015H77.9741V58.1525C76.6694 58.3425 75.4407 58.7668 74.2881 59.4255L73.2431 57.1265C74.1551 56.5818 75.1431 56.1701 76.2071 55.8915C77.2711 55.6128 78.3667 55.4735 79.4941 55.4735C80.6341 55.4735 81.7361 55.6128 82.8001 55.8915C83.8767 56.1701 84.8647 56.5818 85.7641 57.1265L84.7191 59.4255ZM92.696 58.6275C93.7853 58.6275 94.7353 58.8428 95.546 59.2735C96.3566 59.7041 96.9836 60.3185 97.427 61.1165C97.8703 61.9145 98.092 62.8455 98.092 63.9095C98.092 64.9481 97.883 65.8665 97.465 66.6645C97.047 67.4498 96.458 68.0641 95.698 68.5075C94.938 68.9381 94.064 69.1535 93.076 69.1535C91.7713 69.1535 90.7516 68.7418 90.017 67.9185V72.6875H87.053V63.9285C87.053 62.8771 87.2873 61.9525 87.756 61.1545C88.2246 60.3565 88.8833 59.7358 89.732 59.2925C90.5806 58.8491 91.5686 58.6275 92.696 58.6275ZM92.563 66.7215C93.3356 66.7215 93.9626 66.4618 94.444 65.9425C94.9253 65.4231 95.166 64.7455 95.166 63.9095C95.166 63.0608 94.9253 62.3768 94.444 61.8575C93.9626 61.3255 93.3356 61.0595 92.563 61.0595C91.7903 61.0595 91.1633 61.3191 90.682 61.8385C90.2133 62.3578 89.979 63.0418 89.979 63.8905C89.979 64.7391 90.2133 65.4231 90.682 65.9425C91.1506 66.4618 91.7776 66.7215 92.563 66.7215ZM111.447 58.7795V69.0015H108.616V67.8235C107.882 68.7101 106.818 69.1535 105.424 69.1535C104.462 69.1535 103.588 68.9381 102.802 68.5075C102.03 68.0768 101.422 67.4625 100.978 66.6645C100.535 65.8665 100.313 64.9418 100.313 63.8905C100.313 62.8391 100.535 61.9145 100.978 61.1165C101.422 60.3185 102.03 59.7041 102.802 59.2735C103.588 58.8428 104.462 58.6275 105.424 58.6275C106.729 58.6275 107.749 59.0391 108.483 59.8625V58.7795H111.447ZM105.937 66.7215C106.685 66.7215 107.305 66.4681 107.799 65.9615C108.293 65.4421 108.54 64.7518 108.54 63.8905C108.54 63.0291 108.293 62.3451 107.799 61.8385C107.305 61.3191 106.685 61.0595 105.937 61.0595C105.177 61.0595 104.55 61.3191 104.056 61.8385C103.562 62.3451 103.315 63.0291 103.315 63.8905C103.315 64.7518 103.562 65.4421 104.056 65.9615C104.55 66.4681 105.177 66.7215 105.937 66.7215ZM115.199 58.7795H118.144V62.7695H122.59V58.7795H125.554V69.0015H122.59V65.1825H118.144V69.0015H115.199V58.7795ZM134.205 69.1535C133.116 69.1535 132.134 68.9318 131.26 68.4885C130.399 68.0325 129.721 67.4055 129.227 66.6075C128.746 65.8095 128.505 64.9038 128.505 63.8905C128.505 62.8771 128.746 61.9715 129.227 61.1735C129.721 60.3755 130.399 59.7548 131.26 59.3115C132.134 58.8555 133.116 58.6275 134.205 58.6275C135.282 58.6275 136.219 58.8555 137.017 59.3115C137.828 59.7548 138.417 60.3945 138.784 61.2305L136.485 62.4655C135.953 61.5281 135.187 61.0595 134.186 61.0595C133.413 61.0595 132.774 61.3128 132.267 61.8195C131.76 62.3261 131.507 63.0165 131.507 63.8905C131.507 64.7645 131.76 65.4548 132.267 65.9615C132.774 66.4681 133.413 66.7215 134.186 66.7215C135.199 66.7215 135.966 66.2528 136.485 65.3155L138.784 66.5695C138.417 67.3801 137.828 68.0135 137.017 68.4695C136.219 68.9255 135.282 69.1535 134.205 69.1535ZM155.522 63.8525C155.522 65.4358 154.99 66.6898 153.926 67.6145C152.875 68.5265 151.368 69.0521 149.404 69.1915V72.6875H146.687V69.1915C144.724 69.0521 143.21 68.5328 142.146 67.6335C141.095 66.7215 140.569 65.4611 140.569 63.8525C140.569 62.2691 141.089 61.0405 142.127 60.1665C143.179 59.2925 144.699 58.7858 146.687 58.6465V54.9035H149.404V58.6465C151.368 58.7858 152.875 59.2988 153.926 60.1855C154.99 61.0721 155.522 62.2945 155.522 63.8525ZM143.438 63.8525C143.438 64.7645 143.698 65.4675 144.217 65.9615C144.737 66.4555 145.56 66.7658 146.687 66.8925V60.9455C145.56 61.0595 144.737 61.3571 144.217 61.8385C143.698 62.3071 143.438 62.9785 143.438 63.8525ZM149.404 66.8925C150.532 66.7658 151.355 66.4555 151.874 65.9615C152.406 65.4675 152.672 64.7645 152.672 63.8525C152.672 62.9785 152.406 62.3071 151.874 61.8385C151.355 61.3571 150.532 61.0595 149.404 60.9455V66.8925ZM163.571 66.7785C164.103 66.7785 164.572 66.7025 164.977 66.5505C165.395 66.3858 165.782 66.1325 166.136 65.7905L167.713 67.5005C166.751 68.6025 165.345 69.1535 163.495 69.1535C162.343 69.1535 161.323 68.9318 160.436 68.4885C159.55 68.0325 158.866 67.4055 158.384 66.6075C157.903 65.8095 157.662 64.9038 157.662 63.8905C157.662 62.8898 157.897 61.9905 158.365 61.1925C158.847 60.3818 159.499 59.7548 160.322 59.3115C161.158 58.8555 162.096 58.6275 163.134 58.6275C164.11 58.6275 164.996 58.8365 165.794 59.2545C166.592 59.6598 167.226 60.2551 167.694 61.0405C168.176 61.8131 168.416 62.7315 168.416 63.7955L160.854 65.2585C161.07 65.7651 161.405 66.1451 161.861 66.3985C162.33 66.6518 162.9 66.7785 163.571 66.7785ZM163.134 60.8695C162.387 60.8695 161.779 61.1101 161.31 61.5915C160.842 62.0728 160.595 62.7378 160.569 63.5865L165.547 62.6175C165.408 62.0855 165.123 61.6611 164.692 61.3445C164.262 61.0278 163.742 60.8695 163.134 60.8695ZM176.66 58.6275C177.749 58.6275 178.699 58.8428 179.51 59.2735C180.32 59.7041 180.947 60.3185 181.391 61.1165C181.834 61.9145 182.056 62.8455 182.056 63.9095C182.056 64.9481 181.847 65.8665 181.429 66.6645C181.011 67.4498 180.422 68.0641 179.662 68.5075C178.902 68.9381 178.028 69.1535 177.04 69.1535C175.735 69.1535 174.715 68.7418 173.981 67.9185V72.6875H171.017V63.9285C171.017 62.8771 171.251 61.9525 171.72 61.1545C172.188 60.3565 172.847 59.7358 173.696 59.2925C174.544 58.8491 175.532 58.6275 176.66 58.6275ZM176.527 66.7215C177.299 66.7215 177.926 66.4618 178.408 65.9425C178.889 65.4231 179.13 64.7455 179.13 63.9095C179.13 63.0608 178.889 62.3768 178.408 61.8575C177.926 61.3255 177.299 61.0595 176.527 61.0595C175.754 61.0595 175.127 61.3191 174.646 61.8385C174.177 62.3578 173.943 63.0418 173.943 63.8905C173.943 64.7391 174.177 65.4231 174.646 65.9425C175.114 66.4618 175.741 66.7215 176.527 66.7215Z" fill="white"/>
<path d="M21.6181 23.6609H21.6073L12.3586 23.6152C12.1687 24.4017 12.0304 25.1998 11.9447 26.0044L20.4155 26.0479C23.3826 23.5357 27.1427 22.1589 31.0275 22.1621H31.109C31.2361 22.1621 31.3632 22.1654 31.4903 22.1697L32.3812 22.2176C32.5116 22.2285 32.6398 22.2394 32.768 22.2535L32.8408 22.2622C32.9407 22.2731 33.0374 22.284 33.1341 22.2971L33.6436 22.37C33.749 22.3863 33.8511 22.4037 33.9532 22.4223L34.001 22.431C34.1336 22.4538 34.2553 22.4789 34.3759 22.5039L34.4747 22.5257C34.5638 22.5431 34.6529 22.5627 34.7409 22.5833L35.2124 22.6998L35.5785 22.7978C35.6916 22.8308 35.8042 22.8653 35.9164 22.9012L36.7649 23.1907C36.8648 23.2266 36.9626 23.2647 37.0593 23.3039L37.8719 23.65C37.9773 23.6979 38.0784 23.7447 38.1783 23.7937L39.2506 24.3619C39.3603 24.4261 39.4603 24.486 39.5591 24.5469L40.2751 25.0084C40.375 25.077 40.4685 25.1401 40.5608 25.2054L40.6347 25.2599C40.6999 25.3078 40.7694 25.3578 40.8378 25.4101L41.5147 25.9434C41.6038 26.0163 41.6831 26.0827 41.7591 26.1502L42.411 26.7434C42.487 26.8153 42.5565 26.8849 42.625 26.9546C42.6283 26.9579 42.663 26.9894 42.6652 26.9938L43.4724 27.8667L43.6875 28.1214L44.8967 29.7922L45.0814 30.0894C45.14 30.1884 45.1965 30.2842 45.2509 30.38L46.1678 32.2467L46.2982 32.5732C46.3416 32.6799 46.3796 32.7833 46.4177 32.8867C46.9142 34.2462 47.2227 35.6644 47.3411 37.1121L97.9897 37.7565C98.0438 36.1249 98.3457 34.511 98.8849 32.9705C98.8805 32.8809 98.8941 32.7913 98.9251 32.7071C101.182 26.5878 106.873 22.4125 113.425 22.0696C113.617 22.0576 113.808 22.0507 114 22.0489L114.132 22.0446C114.313 22.0327 114.494 22.0334 114.675 22.0467L114.916 22.0554C115.055 22.0588 115.194 22.0642 115.333 22.0718L115.515 22.0848L115.62 22.0935C115.732 22.1027 115.845 22.1125 115.957 22.1229C116.096 22.1371 116.234 22.1512 116.37 22.1686L116.514 22.1871C118.733 22.4801 120.869 23.2252 122.79 24.3764C124.71 25.5277 126.375 27.0607 127.682 28.8812L135.186 28.9182L135.188 28.5437C135.187 28.5253 135.186 28.5068 135.186 28.4882L135.224 20.3357C135.224 20.1583 135.296 19.9895 135.422 19.8644C135.551 19.7427 135.721 19.674 135.898 19.6717L136.457 19.675L136.479 15.4626C136.479 15.2841 136.55 15.1143 136.678 14.9913C136.809 14.8735 136.976 14.805 137.152 14.7976L137.913 14.8009C136.475 12.2582 134.019 8.03609 132.236 5.60121C132.133 5.46169 132.09 5.28771 132.114 5.11632C132.137 4.94493 132.227 4.78968 132.364 4.68364C134.185 3.26429 134.566 2.8202 134.64 2.71788C134.849 2.424 135.034 2.00821 135.175 1.62725L114.461 1.54017L72.4014 1.33336H72.3438C66.1067 1.33336 58.0792 6.3947 52.7612 10.1858C53.8216 9.78089 54.8993 9.54796 55.7749 9.63068C55.8749 9.64011 55.9716 9.6719 56.0577 9.7237C56.1438 9.7755 56.2172 9.846 56.2725 9.93001L56.9689 9.41626C61.3852 6.15088 66.3892 2.45012 73.365 2.45012H73.4606C73.742 2.4523 74.4428 2.4523 75.59 2.4523L85.6502 2.45012C85.7385 2.4491 85.8261 2.46574 85.9078 2.49905C85.9896 2.53235 86.0639 2.58167 86.1264 2.6441C86.189 2.70654 86.2384 2.78084 86.2719 2.86266C86.3054 2.94448 86.3223 3.03217 86.3216 3.12061L86.2716 13.1388C86.2702 13.3159 86.1987 13.4853 86.0729 13.6098C85.947 13.7342 85.7771 13.8036 85.6002 13.8027L56.3649 13.7559L56.3594 15.0643C56.3585 15.2096 56.3102 15.3506 56.222 15.4659C56.1338 15.5813 56.0104 15.6646 55.8705 15.7032C55.3947 15.8371 54.6483 15.8643 54.1051 15.8643C53.2208 15.8643 48.7871 15.7827 48.3471 14.1859C48.2548 13.8539 48.3221 13.4947 48.5459 13.1148C47.7898 13.4708 47.4878 13.5981 47.4726 13.6046C47.4073 13.6313 47.3385 13.6481 47.2683 13.6547C47.0641 13.6721 27.3479 15.3364 19.5985 16.2485L24.1321 16.2703C24.4536 16.2735 24.7296 16.4999 24.7883 16.8145C24.8871 17.3337 24.936 17.8736 24.9328 18.4189C24.9186 21.3588 23.4628 23.6609 21.6181 23.6609ZM21.6138 22.3276L21.6181 22.9948V22.3276C22.5416 22.3276 23.5802 20.7188 23.591 18.4124C23.5921 18.1381 23.5791 17.8681 23.5508 17.6026L15.8319 17.5645C14.2577 18.7487 13.3103 20.5751 12.7399 22.2829L21.6138 22.3276ZM83.0243 17.6581H83.0222C82.845 17.6581 82.675 17.5875 82.5497 17.462C82.4244 17.3365 82.354 17.1662 82.354 16.9887V16.6926L76.6037 16.6643L76.6004 16.9593C76.5992 17.1363 76.528 17.3057 76.4023 17.4302C76.2766 17.5547 76.1068 17.6241 75.9301 17.6232H75.9268C75.7497 17.6227 75.58 17.5518 75.455 17.4261C75.33 17.3004 75.2598 17.1302 75.2598 16.9527L75.2608 16.5914C75.2641 15.8926 75.791 15.3288 76.4526 15.3288L82.5192 15.3592C82.8201 15.3614 83.1058 15.4833 83.3253 15.7032C83.5632 15.9427 83.699 16.2833 83.6968 16.6349L83.6958 16.9941C83.6943 17.1713 83.6228 17.3406 83.497 17.4651C83.3711 17.5895 83.2012 17.6589 83.0243 17.6581ZM110.423 17.793H110.419C110.332 17.7929 110.245 17.7754 110.164 17.7417C110.083 17.7079 110.009 17.6585 109.947 17.5962C109.885 17.5339 109.836 17.4601 109.803 17.3788C109.769 17.2975 109.752 17.2105 109.752 17.1225L109.753 16.8276L104.002 16.7993L103.999 17.0953C103.997 17.2722 103.925 17.4412 103.8 17.5656C103.674 17.69 103.505 17.7596 103.328 17.7593H103.325C103.148 17.7587 102.978 17.6877 102.853 17.5618C102.728 17.4358 102.658 17.2654 102.658 17.0877V16.7285C102.662 16.0286 103.201 15.4746 103.85 15.4648L109.916 15.4953C110.57 15.4975 111.098 16.07 111.096 16.7688L111.094 17.1291C111.093 17.3062 111.021 17.4756 110.895 17.6001C110.769 17.7245 110.599 17.7939 110.423 17.793ZM111.797 13.8452H111.795L88.7204 13.8071C88.5426 13.8069 88.372 13.7365 88.2457 13.6112C88.1832 13.5493 88.1338 13.4755 88.1002 13.3942C88.0666 13.3129 88.0496 13.2257 88.0501 13.1377L88.1012 3.11299C88.1026 2.93602 88.1739 2.76682 88.2995 2.6424C88.4251 2.51797 88.5948 2.44845 88.7715 2.44903L111.847 2.44032C111.935 2.43931 112.022 2.45591 112.104 2.48917C112.186 2.52242 112.26 2.57165 112.322 2.63399C112.385 2.69632 112.434 2.7705 112.468 2.85219C112.501 2.93388 112.518 3.02143 112.517 3.10973L112.467 13.1812C112.466 13.3582 112.394 13.5274 112.269 13.6518C112.143 13.7763 111.974 13.8458 111.797 13.8452ZM89.3962 12.4748L111.129 12.5097L111.172 3.77369L89.4396 3.78348L89.3962 12.4748ZM134.662 13.8811H134.66L114.917 13.8506C114.739 13.8504 114.569 13.7795 114.444 13.6536C114.318 13.5276 114.248 13.357 114.248 13.1791L114.298 3.10211C114.299 2.92514 114.371 2.75594 114.496 2.63151C114.622 2.50709 114.791 2.43757 114.968 2.43815L125.122 2.43271C125.173 2.43271 125.223 2.43924 125.271 2.45012C129.148 3.32306 132.5 8.58032 134.719 12.059L135.175 12.7742C135.259 12.8712 135.313 12.9902 135.331 13.1171C135.349 13.244 135.331 13.3735 135.277 13.4901C135.224 13.6067 135.139 13.7055 135.031 13.7748C134.923 13.8441 134.798 13.881 134.67 13.8811H134.662ZM115.593 12.5184L133.438 12.5467C131.466 9.45544 128.277 4.55738 125.045 3.76824L115.636 3.7726L115.593 12.5184ZM55.0362 11.1687V11.1665L55.0373 10.9662C52.8525 11.1643 50.0104 13.0931 49.6758 13.8234C50.1136 14.126 51.941 14.5309 54.1051 14.5309C54.506 14.5309 54.8037 14.5146 55.0199 14.4961L55.0362 11.2634V11.1687ZM56.3725 12.4226L84.9321 12.4683L84.9755 3.78566L75.59 3.78784L73.4531 3.78675H73.365C66.8335 3.78675 62.0185 7.3471 57.7696 10.4873C57.2981 10.8367 56.8353 11.1796 56.3768 11.5115L56.3736 12.0667L56.3725 12.4226ZM98.6557 39.1007H98.647L46.7001 38.4389C46.5294 38.4374 46.3657 38.3705 46.2426 38.2519C46.1196 38.1333 46.0465 37.972 46.0385 37.8011C45.9716 36.1773 45.6376 34.5756 45.0499 33.0608L44.2405 31.3193L44.0819 31.0363C44.0337 30.9506 43.9841 30.8656 43.933 30.7816L42.6446 28.9628C42.5848 28.8899 42.5196 28.8137 42.4555 28.7375L41.6972 27.919C41.6103 27.8319 41.5451 27.7688 41.4799 27.7056L40.8802 27.1581C40.8074 27.0961 40.7357 27.0341 40.6629 26.9753L39.7721 26.2852L39.52 26.111L38.8519 25.68C38.7639 25.6256 38.6715 25.5723 38.5803 25.5178L37.5873 24.9932C37.4982 24.9497 37.407 24.9061 37.3146 24.8648L35.5687 24.1954L35.2428 24.0941L35.1961 24.0789L34.8724 23.9918L34.4378 23.8851C34.3573 23.866 34.2765 23.8478 34.1955 23.8307L34.0977 23.81C33.9891 23.7883 33.8794 23.7654 33.7686 23.7447L33.7142 23.736C33.6219 23.7186 33.5274 23.7034 33.4339 23.6881L32.957 23.6196L32.693 23.588L32.6235 23.5815C32.507 23.5691 32.3904 23.5582 32.2736 23.5488L31.4491 23.5042C31.3336 23.4996 31.2181 23.4974 31.1025 23.4976H31.0264C27.38 23.4946 23.856 24.816 21.1075 27.2169C20.9843 27.325 20.8258 27.3842 20.6621 27.3834L16.4902 27.3628C16.4267 27.3759 16.3615 27.3796 16.2969 27.3736L16.2165 27.3628L10.2466 27.3312C10.0224 27.3303 9.80697 27.4183 9.64722 27.5759C9.48747 27.7335 9.39638 27.948 9.3938 28.1726L9.35794 35.3325C9.35823 35.5571 9.44734 35.7724 9.60576 35.9313C9.76417 36.0902 9.97899 36.1798 10.2032 36.1804L12.0251 36.188C12.1406 36.1886 12.2541 36.2189 12.3545 36.2761C12.455 36.3333 12.5391 36.4154 12.5987 36.5145C13.1778 37.4833 14.149 38.7208 15.506 39.1889L17.1714 39.1976L17.141 37.4778C17.141 37.4593 17.141 37.4397 17.1432 37.419C17.2627 35.7809 17.669 34.195 18.3513 32.706L18.6772 32.0464C18.7163 31.968 18.7565 31.894 18.7967 31.8211L19.2324 31.0809C19.2802 31.0058 19.328 30.9318 19.3779 30.8589L19.7506 30.3179C19.8299 30.2113 19.907 30.1068 19.9874 30.0023L21.2303 28.6025L22.0396 27.8656C22.1081 27.8069 22.1722 27.7535 22.2363 27.7024L22.8034 27.267C22.8794 27.2104 22.9511 27.1581 23.025 27.1081L24.446 26.2351L24.6883 26.1099C24.7948 26.0555 24.8795 26.012 24.9632 25.9728L25.3195 25.8074C25.3923 25.7747 25.4608 25.7442 25.5314 25.7159L25.5911 25.6887L25.8573 25.5799L26.52 25.3361C26.6132 25.3035 26.707 25.2726 26.8014 25.2435L27.0849 25.1565L27.4663 25.052L27.6944 24.9932L27.7998 24.9671L28.0453 24.9126L28.745 24.7788C28.8428 24.7624 28.9427 24.7472 29.0427 24.7341L29.1209 24.7233C29.2002 24.7124 29.2817 24.7015 29.3632 24.6928L29.437 24.6841C29.5152 24.6743 29.5946 24.6656 29.6739 24.659L29.7488 24.6514L30.0606 24.6264L30.7777 24.5959L31.0927 24.5937L31.4132 24.5992L31.8423 24.6177C31.9499 24.6231 32.0509 24.6296 32.152 24.6394L32.5735 24.6797C32.6517 24.6862 32.7343 24.6971 32.8158 24.7069L32.8842 24.7178C32.9852 24.7287 33.0885 24.745 33.1917 24.7603L33.9152 24.8931C34.0152 24.9137 34.1129 24.9344 34.2118 24.9584L34.8713 25.1282L34.9147 25.1412C35.0092 25.1673 35.0994 25.1956 35.1918 25.225L35.5905 25.3556L35.8393 25.4427L35.8632 25.4525C35.8713 25.4548 35.8793 25.4577 35.8871 25.4612L36.5422 25.7225L36.8029 25.8378L38.0675 26.4909L39.1767 27.2136C39.2462 27.2626 39.3114 27.3105 39.3755 27.3584L39.8438 27.723L40.0535 27.8972L41.1768 28.9628C41.2344 29.0216 41.2909 29.0825 41.3463 29.1457L41.7287 29.5832C41.7993 29.667 41.8699 29.7541 41.9406 29.8423L42.3099 30.3266L42.5272 30.6314L42.889 31.1865C42.9401 31.2692 42.99 31.3509 43.0378 31.4336L43.3181 31.9299L43.4409 32.164L43.7581 32.8279C44.4514 34.3789 44.8494 36.046 44.9314 37.7434V39.0626C44.9238 39.2193 44.9152 39.3652 44.9054 39.5023L99.7573 40.2C99.7798 40.0393 99.8594 39.8922 99.9816 39.7856C100.104 39.679 100.26 39.6202 100.422 39.6199H100.492C100.446 39.1421 100.422 38.6621 100.424 38.1853C100.453 32.6309 103.847 27.6305 108.95 25.4961C108.977 25.4801 109.005 25.4663 109.034 25.4547C109.138 25.4122 109.243 25.3731 109.349 25.3328C109.373 25.3234 109.398 25.3154 109.423 25.3088L109.712 25.2033L109.803 25.1717L109.846 25.1565H109.848L109.85 25.1543C110.003 25.1042 110.156 25.0552 110.312 25.0095H110.314L110.365 24.9932L110.406 24.9823C110.967 24.8146 111.538 24.6847 112.115 24.5937C112.69 24.5003 113.27 24.4432 113.851 24.4228H113.916C114.069 24.4174 114.223 24.412 114.377 24.412L114.58 24.4152C114.825 24.4207 115.068 24.4315 115.308 24.4479L115.544 24.4664C118.004 24.6793 120.364 25.5455 122.379 26.9758C124.394 28.4061 125.992 30.3488 127.009 32.6037C127.068 32.6626 127.115 32.732 127.148 32.8083C128.093 34.9943 128.451 37.3895 128.189 39.757L139.872 39.8136C140.102 39.8151 140.324 39.7253 140.488 39.5637C140.652 39.4022 140.746 39.1822 140.749 38.9516L140.775 33.776L140.77 33.7161C140.765 33.5941 140.792 33.4729 140.85 33.3655C140.908 33.2581 140.995 33.1686 141.1 33.1066L141.114 30.2831L140.169 30.2777L140.136 30.2787H140.133L127.327 30.2156C127.219 30.2148 127.112 30.1878 127.016 30.137C126.92 30.0863 126.838 30.0132 126.776 29.9239C125.583 28.182 124.036 26.7111 122.239 25.6064C120.441 24.5018 118.431 23.7881 116.34 23.5118L116.199 23.4944C115.973 23.4658 115.747 23.4429 115.52 23.4258L115.248 23.404C115.172 23.3996 115.096 23.396 115.019 23.3932C114.984 23.3932 114.951 23.3932 114.917 23.391L114.87 23.3899H114.842L114.611 23.3801H114.6C114.524 23.3768 114.447 23.3725 114.368 23.3725C114.305 23.3725 114.252 23.3747 114.2 23.3779L114.149 23.3801L114.023 23.3855C113.849 23.3888 113.673 23.3921 113.497 23.4019C107.572 23.7121 102.412 27.4357 100.279 32.9172C100.282 33.0024 100.268 33.0875 100.239 33.1675C99.6389 34.7922 99.3285 36.5097 99.3216 38.2419L99.3238 38.3105C99.3434 38.4078 99.3409 38.5084 99.3164 38.6046C99.2919 38.7009 99.246 38.7904 99.1822 38.8664C99.1185 38.9425 99.0384 39.0031 98.9479 39.0439C98.8575 39.0846 98.7591 39.1044 98.66 39.1018H98.6557V39.1007ZM18.7532 15.0077C25.7063 14.1467 45.3845 12.477 47.0434 12.3355C47.2249 12.256 47.6768 12.0525 48.5079 11.6541C56.2073 5.88421 65.0507 0 72.3438 0H72.409L114.468 0.206807L136.089 0.296061C136.191 0.296351 136.291 0.319605 136.382 0.364085C136.473 0.408566 136.553 0.473123 136.616 0.552937C136.679 0.632205 136.722 0.724874 136.744 0.823774C136.765 0.922674 136.763 1.02516 136.739 1.12329C136.724 1.18315 136.366 2.60904 135.733 3.49395C135.567 3.72253 135.172 4.16118 133.695 5.3378C136.394 9.17789 140.113 15.9873 140.276 16.2877C140.307 16.3421 140.327 16.3998 140.341 16.4586C140.363 16.5533 140.862 18.7781 140.85 20.9605C140.844 22.358 140.824 26.357 140.811 28.9465L141.74 28.9508C141.766 28.9508 141.793 28.9519 141.819 28.9563C141.986 28.9637 142.145 29.0336 142.264 29.1522C142.389 29.2774 142.46 29.4482 142.459 29.6257L142.438 33.6856C142.438 33.8004 142.407 33.913 142.35 34.0126C142.294 34.1122 142.212 34.1953 142.113 34.2538L142.089 38.9559C142.084 39.54 141.848 40.0981 141.433 40.5085C141.018 40.919 140.458 41.1485 139.875 41.147L127.416 41.085C127.32 41.0848 127.224 41.0636 127.137 41.0229C127.049 40.9822 126.971 40.9229 126.909 40.8491C126.846 40.7752 126.8 40.6887 126.775 40.5955C126.749 40.5022 126.743 40.4044 126.759 40.3089C127.139 38.0231 126.876 35.6764 125.998 33.5322C125.943 33.4741 125.898 33.4066 125.866 33.333C124.967 31.2493 123.522 29.4484 121.683 28.1211C119.845 26.7939 117.683 25.9898 115.426 25.7943L115.216 25.7769C114.999 25.7627 114.779 25.7529 114.557 25.7486L114.413 25.7442C114.245 25.7431 114.098 25.7486 113.959 25.754L113.698 25.7627C112.819 25.8083 111.947 25.9462 111.097 26.1742L110.923 26.221L110.907 26.2275L110.725 26.2776C110.543 26.332 110.364 26.3897 110.186 26.4517C105.167 28.2129 101.793 32.9281 101.766 38.1908C101.763 38.821 101.81 39.4577 101.901 40.0847C101.932 40.1851 101.94 40.2915 101.923 40.3954C101.906 40.4993 101.864 40.5976 101.802 40.6825C101.74 40.7673 101.658 40.8363 101.565 40.8837C101.471 40.9311 101.367 40.9557 101.262 40.9554L101.253 40.9565H101.087C101.067 41.1191 100.988 41.2687 100.866 41.3767C100.743 41.4847 100.585 41.5436 100.421 41.5421H100.413L44.2492 40.827C44.1052 40.8255 43.9656 40.7775 43.8509 40.6903C43.7362 40.6031 43.6527 40.4812 43.6125 40.3426C43.5354 40.2158 43.5028 40.0667 43.5202 39.9192C43.5506 39.6569 43.5745 39.3641 43.5897 39.0278L43.5919 37.7739C43.514 36.2541 43.1556 34.762 42.5348 33.3732L42.2415 32.7615C42.2091 32.6977 42.1762 32.6342 42.1426 32.571L41.8797 32.1074C41.8361 32.0324 41.7916 31.958 41.7461 31.8842L41.418 31.3835C41.355 31.2921 41.2898 31.1985 41.2224 31.1082L40.8922 30.6728C40.8285 30.5931 40.7637 30.5143 40.6977 30.4366L40.3522 30.0393L40.2034 29.8793L39.18 28.9106C39.1192 28.8581 39.0576 28.8066 38.9953 28.756L38.5651 28.4197C38.5086 28.3774 38.4518 28.3356 38.3945 28.2945L37.0473 27.4488L36.2434 27.0493L36.0163 26.9481L35.4188 26.7086C35.4103 26.7069 35.4019 26.7043 35.3938 26.701C35.3069 26.6683 35.233 26.6422 35.1592 26.6183L34.7887 26.4953C34.7105 26.4735 34.6279 26.4463 34.5453 26.4223C34.5284 26.4169 34.5114 26.4118 34.4943 26.4071L33.9 26.2547C33.8148 26.2345 33.7293 26.2153 33.6436 26.197L32.9755 26.0751L32.7147 26.0381L32.6441 26.0294C32.574 26.02 32.5037 26.0116 32.4334 26.0044L32.0357 25.9652L31.7685 25.9478L31.3719 25.9314L31.0873 25.9249C30.996 25.9249 30.9004 25.9271 30.8048 25.9293L30.1519 25.9565L29.8759 25.9782L29.8031 25.9859C29.7304 25.9935 29.6619 25.9989 29.5924 26.0076L29.5163 26.0163L29.3012 26.0425L29.2252 26.0544C29.1415 26.0653 29.0535 26.0795 28.9677 26.0936L28.0149 26.2885C27.9476 26.3039 27.8806 26.3206 27.8139 26.3385L27.4608 26.4365C27.3848 26.4583 27.3087 26.4833 27.2316 26.5072C27.123 26.5399 27.0415 26.5671 26.9589 26.5954L26.3527 26.8196C26.2788 26.8479 26.2006 26.8806 26.1224 26.9132L25.5466 27.1734L25.3184 27.2855L23.792 28.202L23.6008 28.338L23.088 28.7331C23.0282 28.7801 22.9692 28.828 22.9109 28.8768L21.6333 30.1166L21.0651 30.7958C20.9782 30.909 20.9076 31.0037 20.837 31.1005L20.4969 31.5925C20.4502 31.6611 20.41 31.7231 20.372 31.7863L19.5702 33.2644C18.9601 34.5954 18.5922 36.0248 18.4838 37.4854L18.5251 39.855C18.5261 39.9441 18.5094 40.0324 18.476 40.1149C18.4425 40.1975 18.393 40.2725 18.3303 40.3356C18.2676 40.3987 18.1929 40.4487 18.1107 40.4826C18.0285 40.5165 17.9404 40.5337 17.8515 40.5331L15.3919 40.5222C15.3244 40.521 15.2574 40.51 15.1931 40.4896C13.8546 40.0694 12.6346 39.0452 11.647 37.5203L10.1967 37.5137C9.61768 37.5126 9.06282 37.2813 8.65383 36.8708C8.24484 36.4602 8.01514 35.9038 8.01514 35.3237L8.05099 28.1639C8.05786 27.5866 8.2917 27.0354 8.70177 26.6299C9.11183 26.2243 9.66501 25.9972 10.2412 25.9978H10.5954C10.817 23.6413 12.062 15.8327 18.7543 15.0066L18.7532 15.0077ZM137.014 27.8319C137.04 27.8299 137.067 27.8299 137.094 27.8319L139.429 27.8439L139.46 21.0268L137.12 21.0138H137.116L136.562 21.0105L136.532 27.8286L137.014 27.8319ZM137.798 19.6826L138.64 19.688L139.439 19.6913C139.36 18.7445 139.223 17.8034 139.03 16.8733L138.624 16.1408L137.815 16.1353L137.798 19.6826ZM31.134 50.0016C29.5857 50.007 28.0517 49.7043 26.6211 49.1111C25.1905 48.5178 23.8917 47.6459 22.8001 46.5458C18.2502 41.9753 18.2883 34.5782 22.8816 30.0534C25.0811 27.8833 28.047 26.6714 31.134 26.6814C32.6821 26.6758 34.2159 26.9783 35.6463 27.5713C37.0767 28.1644 38.3754 29.0362 39.4668 30.1362C40.5479 31.2211 41.4039 32.5098 41.9853 33.9278C42.5668 35.3458 42.8623 36.8652 42.8547 38.3982C42.8471 39.9313 42.5367 41.4476 41.9412 42.8598C41.3457 44.272 40.4771 45.5521 39.3853 46.6263C37.1745 48.8032 34.2444 50.0005 31.134 50.0005V50.0016ZM31.134 28.0137C28.4001 28.0054 25.7737 29.0797 23.8268 31.0026C22.8599 31.9538 22.0905 33.0874 21.563 34.338C21.0356 35.5886 20.7605 36.9314 20.7536 38.2891C20.7467 39.6467 21.0082 40.9923 21.523 42.2482C22.0378 43.5041 22.7957 44.6454 23.7529 45.6064C24.7199 46.5805 25.8703 47.3527 27.1373 47.8783C28.4042 48.4039 29.7627 48.6724 31.134 48.6683C33.8678 48.6761 36.4941 47.6019 38.4412 45.6793C39.4082 44.7281 40.1776 43.5945 40.7051 42.3439C41.2325 41.0932 41.5076 39.7503 41.5143 38.3926C41.5211 37.0349 41.2595 35.6893 40.7445 34.4335C40.2295 33.1776 39.4715 32.0363 38.514 31.0755C37.5477 30.1008 36.3976 29.3282 35.1307 28.8026C33.8638 28.277 32.5052 28.0088 31.134 28.0137ZM31.134 47.0149C29.9821 47.0192 28.8408 46.7942 27.7764 46.3528C26.712 45.9115 25.7458 45.2626 24.9338 44.4439C24.1265 43.6391 23.4873 42.6811 23.0538 41.6259C22.6203 40.5707 22.4011 39.4396 22.409 38.2985C22.4121 37.1572 22.6423 36.0279 23.0863 34.9768C23.5303 33.9257 24.1791 32.9739 24.9947 32.177C26.6298 30.5612 28.8362 29.6585 31.1329 29.6659C31.4762 29.6659 31.8152 29.6855 32.1498 29.7236C32.1933 29.7247 32.2367 29.7302 32.278 29.74C34.1936 29.986 35.9727 30.8646 37.3342 32.2369C38.2441 33.1473 38.9385 34.2507 39.3662 35.4658C39.794 36.6808 39.9442 37.9765 39.8058 39.2574L39.8025 39.2923C39.5853 41.2708 38.6913 43.113 37.2722 44.506C35.6367 46.1209 33.4303 47.0228 31.134 47.0149ZM30.405 40.4221C30.5136 40.422 30.6205 40.4481 30.7168 40.4983C30.8298 40.5444 30.9274 40.6216 30.9984 40.721C31.0693 40.8204 31.1107 40.9379 31.1177 41.0599L31.4588 45.675L31.4914 45.6728L31.8782 41.0643C31.889 40.9382 31.9354 40.8178 32.0119 40.7172C32.0885 40.6166 32.1921 40.5399 32.3106 40.4961L32.3356 40.482C32.4506 40.4348 32.5763 40.4203 32.699 40.4401C32.8216 40.4599 32.9365 40.5131 33.0309 40.5941L36.3988 43.4861L36.4444 43.4404L33.5708 40.0618C33.4904 39.9678 33.4379 39.8532 33.4193 39.7308C33.4006 39.6084 33.4166 39.4833 33.4654 39.3695L33.4861 39.3249C33.5338 39.2115 33.6122 39.1138 33.7124 39.0426C33.8126 38.9715 33.9306 38.9298 34.0532 38.9222L38.5075 38.5967L38.5107 38.5347L34.0565 38.1646C33.9336 38.1549 33.8158 38.1114 33.7161 38.0388C33.6164 37.9661 33.5386 37.8673 33.4915 37.7532L33.4731 37.7097C33.4262 37.5956 33.4119 37.4708 33.4318 37.3491C33.4518 37.2274 33.5052 37.1137 33.586 37.0207L36.6628 33.4766C36.6577 33.4705 36.6526 33.4643 36.6475 33.4581L33.0504 36.4841C32.9487 36.5688 32.8245 36.6219 32.693 36.6368C32.5616 36.6517 32.4286 36.6277 32.3106 36.5679C32.2004 36.5164 32.1051 36.4376 32.0338 36.339C31.9625 36.2403 31.9175 36.125 31.9032 36.004L31.5468 31.1822L31.1427 35.9997C31.1321 36.1228 31.0876 36.2404 31.0141 36.3396C30.9407 36.4388 30.8411 36.5156 30.7266 36.5613L30.6842 36.5787C30.5696 36.6255 30.4444 36.6399 30.3222 36.6203C30.2 36.6007 30.0855 36.5479 29.9911 36.4677L26.3103 33.3079L29.4511 36.9978C29.5379 37.0991 29.5921 37.2241 29.6069 37.3568C29.6216 37.4894 29.5961 37.6233 29.5337 37.7412C29.4865 37.8541 29.4084 37.9514 29.3085 38.0219C29.2086 38.0923 29.0908 38.1331 28.9688 38.1396L24.1201 38.4933L28.9655 38.8972C29.0895 38.9072 29.2082 38.9516 29.3084 39.0254C29.4085 39.0992 29.4862 39.1996 29.5326 39.3151L29.5489 39.351C29.5958 39.4651 29.6101 39.5899 29.5901 39.7116C29.5702 39.8333 29.5168 39.947 29.4359 40.04L26.256 43.7038L29.9715 40.5788C30.0936 40.477 30.2473 40.4212 30.4061 40.421L30.405 40.4221ZM27.2794 44.5909C28.142 45.1199 29.1002 45.4606 30.1073 45.5988L29.8716 42.4107L27.2794 44.5909ZM33.1102 42.4259L32.8549 45.4704C33.7505 45.2578 34.5982 44.8782 35.3536 44.3514L33.1102 42.4259ZM23.9039 39.8169C24.1256 40.9017 24.5945 41.9205 25.2739 42.7938L27.5923 40.1228L23.9039 39.8169ZM35.4123 40.1598L37.2972 42.377C37.7891 41.6379 38.1408 40.8143 38.3348 39.9475L35.4123 40.1598ZM35.4286 36.9412L38.4141 37.1883C38.2685 36.2691 37.9476 35.3866 37.4689 34.589L35.4286 36.9412ZM25.1685 34.035C24.4912 34.964 24.042 36.0398 23.8572 37.1752L27.6086 36.9031L25.1685 34.035ZM32.8951 31.2192L33.1493 34.6533L35.6524 32.5471C34.8373 31.9141 33.8975 31.4616 32.8951 31.2192ZM27.0806 32.2086L29.9107 34.6358L30.2106 31.0657C29.0937 31.2004 28.023 31.5915 27.0817 32.2086H27.0806ZM32.0477 40.5081H32.0444L30.9558 40.5026C30.8678 40.5024 30.7806 40.4848 30.6993 40.4508C30.618 40.4168 30.5442 40.3671 30.4822 40.3045L29.7162 39.5361C29.6543 39.4739 29.6054 39.4 29.5722 39.3188C29.539 39.2375 29.5222 39.1504 29.5229 39.0626L29.5272 37.9796C29.5283 37.8033 29.6 37.6345 29.7271 37.5094L30.4995 36.7475C30.5605 36.6831 30.6345 36.6326 30.7166 36.5994C30.7987 36.5662 30.8869 36.551 30.9754 36.5548L32.0651 36.5592C32.2421 36.5613 32.4127 36.631 32.5376 36.7562L33.3047 37.5268C33.4296 37.6531 33.5002 37.8229 33.4991 38.0003L33.4937 39.0822C33.4932 39.1698 33.4753 39.2565 33.4412 39.3372C33.4071 39.4179 33.3574 39.4911 33.2949 39.5524L32.5203 40.3154C32.394 40.4392 32.2243 40.5084 32.0477 40.5081ZM31.2405 39.1693L31.7728 39.1736L32.1531 38.7992L32.1552 38.2691L31.7804 37.8914L31.247 37.8903L30.8678 38.2626L30.8657 38.7938L31.2405 39.1693ZM114.569 50.0016C113.021 50.007 111.487 49.7043 110.057 49.1111C108.626 48.5178 107.327 47.6459 106.236 46.5458C101.686 41.9753 101.724 34.5782 106.318 30.0534C108.517 27.8834 111.483 26.6714 114.569 26.6814C117.723 26.6814 120.684 27.907 122.902 30.1362C123.983 31.2211 124.839 32.5097 125.421 33.9277C126.002 35.3457 126.298 36.865 126.29 38.398C126.283 39.931 125.972 41.4473 125.377 42.8596C124.782 44.2718 123.913 45.552 122.822 46.6263C120.61 48.8032 117.68 50.0005 114.571 50.0005L114.569 50.0016ZM114.569 28.0137C111.836 28.0057 109.209 29.0799 107.262 31.0026C106.295 31.9539 105.526 33.0875 104.999 34.3381C104.471 35.5887 104.196 36.9315 104.189 38.2891C104.183 39.6467 104.444 40.9922 104.959 42.2481C105.473 43.504 106.231 44.6454 107.188 45.6064C108.155 46.5805 109.306 47.3527 110.573 47.8783C111.84 48.4039 113.198 48.6724 114.569 48.6683C117.303 48.6765 119.93 47.6022 121.877 45.6793C122.844 44.7281 123.613 43.5945 124.14 42.3439C124.668 41.0932 124.943 39.7503 124.95 38.3926C124.957 37.0349 124.695 35.6893 124.18 34.4335C123.665 33.1776 122.907 32.0363 121.949 31.0755C120.983 30.1008 119.833 29.3283 118.566 28.8027C117.299 28.277 115.941 28.0088 114.569 28.0137ZM114.569 47.0149C113.418 47.0191 112.277 46.794 111.212 46.3527C110.148 45.9113 109.182 45.2625 108.37 44.4439C107.563 43.6393 106.923 42.6813 106.49 41.6261C106.056 40.5709 105.837 39.4396 105.844 38.2985C105.847 37.1572 106.078 36.0279 106.522 34.9768C106.966 33.9256 107.614 32.9738 108.43 32.177C110.066 30.561 112.272 29.6584 114.569 29.6659C114.912 29.6659 115.251 29.6855 115.585 29.7236C115.629 29.7247 115.672 29.7302 115.713 29.74C117.629 29.986 119.408 30.8646 120.77 32.2369C121.854 33.323 122.629 34.6796 123.015 36.1665C123.401 37.6533 123.383 39.2164 122.964 40.6942C122.442 42.5197 121.34 44.1245 119.824 45.2651C118.309 46.4057 116.464 47.0197 114.568 47.0138L114.569 47.0149ZM113.839 40.4221C113.948 40.4217 114.055 40.4474 114.151 40.4972C114.264 40.5436 114.362 40.6211 114.433 40.7206C114.504 40.8201 114.546 40.9378 114.553 41.0599L114.894 45.675L114.927 45.6728L115.314 41.0643C115.325 40.9387 115.371 40.8188 115.446 40.7182C115.522 40.6177 115.625 40.5407 115.743 40.4961L115.772 40.482C115.887 40.4352 116.012 40.421 116.134 40.4407C116.257 40.4605 116.371 40.5136 116.465 40.5941L119.835 43.4861L119.88 43.4404L117.006 40.0618C116.926 39.9689 116.874 39.8555 116.855 39.7344C116.836 39.6133 116.85 39.4892 116.898 39.3761L116.924 39.3217C116.971 39.2087 117.049 39.1113 117.149 39.0407C117.249 38.9701 117.367 38.929 117.489 38.9222L121.944 38.5967L121.946 38.5347L117.493 38.1646C117.372 38.155 117.255 38.1124 117.156 38.0415C117.057 37.9705 116.98 37.8739 116.931 37.7619L116.91 37.7107C116.862 37.5967 116.847 37.4716 116.867 37.3497C116.887 37.2277 116.94 37.1138 117.021 37.0207L120.098 33.4755L120.083 33.4581L116.487 36.4841C116.385 36.5692 116.26 36.6226 116.128 36.6375C115.996 36.6524 115.862 36.6282 115.744 36.5679C115.634 36.5159 115.54 36.4369 115.469 36.3383C115.398 36.2397 115.354 36.1246 115.34 36.004L114.983 31.18L114.578 35.9997C114.568 36.1223 114.523 36.2396 114.451 36.3387C114.378 36.4379 114.279 36.5149 114.165 36.5613L114.122 36.5787C114.007 36.6259 113.881 36.6405 113.759 36.6209C113.636 36.6014 113.521 36.5484 113.427 36.4677L109.745 33.309L112.887 36.9989C113.052 37.1948 113.091 37.4669 112.988 37.6999C112.888 37.9263 112.651 38.1211 112.403 38.1407L107.554 38.4944L112.4 38.8983C112.65 38.92 112.867 39.0778 112.965 39.3086L112.983 39.3521C113.03 39.4661 113.045 39.591 113.025 39.7127C113.005 39.8345 112.951 39.9482 112.87 40.0411L109.691 43.706L113.407 40.5799C113.528 40.4784 113.681 40.4226 113.839 40.4221ZM110.715 44.5909C111.579 45.1199 112.536 45.4606 113.543 45.5988L113.308 42.4107L110.715 44.5909ZM116.546 42.4259L116.29 45.4704C117.186 45.2577 118.034 44.8782 118.789 44.3514L116.546 42.4259ZM107.339 39.8169C107.561 40.9018 108.031 41.9206 108.71 42.7938L111.028 40.1228L107.339 39.8169ZM118.848 40.1598L120.733 42.377C121.225 41.638 121.577 40.8144 121.77 39.9475L118.848 40.1598ZM118.864 36.9412L121.848 37.1883C121.704 36.269 121.383 35.3865 120.904 34.589L118.864 36.9412ZM108.605 34.035C107.928 34.964 107.478 36.0398 107.293 37.1752L111.045 36.9031L108.605 34.035ZM116.332 31.2192L116.585 34.6522L119.088 32.5471C118.273 31.9142 117.334 31.4616 116.332 31.2192ZM110.517 32.2086L113.346 34.6358L113.646 31.0657C112.529 31.2003 111.458 31.5914 110.517 32.2086ZM115.484 40.5081H115.481L114.391 40.5026C114.303 40.5024 114.216 40.4848 114.135 40.4508C114.053 40.4168 113.98 40.3671 113.918 40.3045L113.152 39.5361C113.09 39.4738 113.041 39.3999 113.008 39.3187C112.975 39.2374 112.958 39.1504 112.958 39.0626L112.964 37.9796C112.964 37.8033 113.035 37.6345 113.163 37.5094L113.935 36.7475C114.062 36.6234 114.245 36.57 114.411 36.5548L115.5 36.5592C115.678 36.5603 115.849 36.6319 115.974 36.7583L116.74 37.5268C116.865 37.6531 116.935 37.8229 116.933 38.0003L116.929 39.0822C116.929 39.1699 116.911 39.2566 116.877 39.3374C116.843 39.4181 116.793 39.4912 116.73 39.5524L115.956 40.3154C115.83 40.439 115.66 40.5081 115.484 40.5081ZM114.676 39.1693L115.208 39.1736L115.588 38.7992L115.591 38.2691L115.216 37.8914L114.684 37.8903L114.303 38.2626L114.301 38.7938L114.676 39.1693ZM146.234 25.0193C146.146 25.0192 146.06 25.0017 145.979 24.9679C145.898 24.9341 145.824 24.8847 145.762 24.8224C145.7 24.7601 145.651 24.6863 145.618 24.605C145.585 24.5237 145.568 24.4367 145.568 24.3488C145.569 24.1721 145.641 24.0031 145.767 23.879C145.892 23.7549 146.062 23.6859 146.238 23.687H146.243L177.462 23.8917C181.062 22.9708 181.816 20.7286 181.969 19.6467L145.877 19.503C145.789 19.5029 145.702 19.4854 145.621 19.4516C145.54 19.4179 145.466 19.3684 145.404 19.3062C145.343 19.2439 145.293 19.17 145.26 19.0888C145.227 19.0075 145.209 18.9204 145.21 18.8325C145.211 18.6555 145.282 18.4863 145.408 18.3619C145.534 18.2375 145.703 18.168 145.88 18.1686H145.882L182.672 18.3144C183.018 18.3155 183.307 18.5789 183.337 18.9218C183.343 18.9686 183.683 23.5259 178.072 25.1097C176.384 30.1372 172.621 30.306 172.126 30.306L172.079 30.3049L171.909 30.3038C170.624 35.2127 167.149 35.6557 165.939 35.6557C165.771 35.6557 165.646 35.6481 165.58 35.6405L163.339 35.6078C163.336 35.6309 163.332 35.6538 163.327 35.6764C162.099 40.8303 158.522 41.2874 157.293 41.2874C157.121 41.2874 156.995 41.2798 156.928 41.2733L145.828 40.9946C145.74 40.9926 145.653 40.9734 145.573 40.9379C145.493 40.9024 145.42 40.8514 145.36 40.7878C145.299 40.7243 145.251 40.6493 145.22 40.5673C145.188 40.4853 145.173 40.3979 145.175 40.31C145.176 40.2219 145.196 40.1351 145.231 40.0546C145.267 39.9741 145.318 39.9015 145.382 39.8411C145.446 39.7806 145.521 39.7336 145.604 39.7027C145.686 39.6719 145.774 39.6578 145.861 39.6613L156.986 39.9399C157.011 39.9421 157.038 39.9432 157.063 39.9475C157.21 39.966 160.719 40.372 161.965 35.5893L146.032 35.3608C145.855 35.3585 145.686 35.2861 145.562 35.1594C145.439 35.0327 145.37 34.8621 145.371 34.6848C145.375 34.5091 145.447 34.3417 145.572 34.2188C145.698 34.0958 145.866 34.0271 146.042 34.0274H146.052L165.624 34.3071C165.655 34.3071 165.682 34.3104 165.711 34.3148C165.856 34.3322 169.199 34.7207 170.519 30.2951L146.154 30.1449C146.066 30.1446 145.979 30.1269 145.898 30.093C145.817 30.059 145.743 30.0094 145.681 29.9469C145.62 29.8844 145.571 29.8103 145.537 29.7289C145.504 29.6474 145.487 29.5602 145.488 29.4722C145.489 29.2955 145.561 29.1267 145.686 29.0027C145.812 28.8787 145.982 28.8095 146.158 28.8104H146.162L172.106 28.9715C172.238 28.9759 175.09 28.9802 176.601 25.2207L146.234 25.0193Z" fill="white"/>
</svg>
