<svg width="35" height="36" viewBox="0 0 35 36" fill="none" xmlns="http://www.w3.org/2000/svg">
<path fill-rule="evenodd" clip-rule="evenodd" d="M21.7939 22.9241C23.0606 22.6408 24.6548 21.1076 24.9657 19.8743C25.4846 17.4881 25.4846 15.069 24.9658 12.6827C24.6548 11.4494 23.0613 9.9162 21.794 9.63291C18.8985 9.07987 15.962 9.07987 13.0659 9.63291C11.7992 9.9162 10.2056 11.4494 9.89407 12.6827C9.37586 15.069 9.37586 17.488 9.89407 19.8742C10.2056 21.1076 11.7992 22.6408 13.0659 22.9241C13.1224 22.9353 13.1644 22.9845 13.1644 23.0423V26.538C13.1644 26.7127 13.3768 26.7989 13.4978 26.6723L16.7062 23.3656C16.7293 23.3417 16.7612 23.3287 16.7944 23.3297C18.4642 23.3761 20.1357 23.2408 21.7939 22.9241ZM19.9993 21.4345C19.872 21.3993 19.7494 21.3654 19.6328 21.3169C17.8469 20.5729 16.2032 19.6131 14.9014 18.1419C14.161 17.3053 13.5815 16.3607 13.0917 15.3612C12.8833 14.936 12.7043 14.4959 12.5257 14.0565L12.4641 13.9051C12.2821 13.4589 12.5501 12.9978 12.8323 12.6615C13.0971 12.3459 13.4378 12.1044 13.8069 11.9263C14.0949 11.7874 14.3789 11.8675 14.5893 12.1126C15.044 12.6426 15.4618 13.1996 15.7999 13.8139C16.0079 14.1917 15.9509 14.6536 15.5739 14.9107C15.5004 14.9607 15.4323 15.0178 15.3642 15.0748L15.3134 15.1171C15.2385 15.179 15.1681 15.2415 15.1168 15.3252C15.023 15.4784 15.0185 15.6592 15.0789 15.8258C15.5437 17.1084 16.3272 18.1057 17.613 18.643L17.668 18.6662C17.8558 18.7457 18.0464 18.8265 18.2624 18.8013C18.5192 18.7711 18.6637 18.5775 18.809 18.3826C18.8883 18.2763 18.9679 18.1697 19.0661 18.0891C19.338 17.8659 19.6855 17.8629 19.9783 18.049C20.2713 18.2352 20.5552 18.435 20.8375 18.637L20.8956 18.6785C21.1531 18.8625 21.4083 19.0449 21.646 19.2551C21.8918 19.4724 21.9764 19.7575 21.838 20.0523C21.5847 20.5925 21.216 21.0417 20.6843 21.3285C20.5817 21.3837 20.4655 21.4135 20.3481 21.4434C20.2937 21.4573 20.2392 21.4713 20.1856 21.4879C20.1225 21.4686 20.0603 21.4514 19.9993 21.4345ZM22.101 15.2499C21.6898 12.9311 19.771 11.3745 17.435 11.3088L17.4207 11.3087L17.3953 11.3083C17.3633 11.3078 17.3314 11.3073 17.2997 11.3092C17.134 11.3181 16.9872 11.4572 17.0182 11.6318C17.0531 11.8287 17.2501 11.8486 17.4125 11.865L17.4406 11.8679C17.5228 11.8766 17.6053 11.8837 17.6877 11.8909C17.8701 11.9067 18.0525 11.9225 18.2321 11.9546C19.9642 12.2648 21.3518 13.7103 21.5936 15.4576C21.6301 15.7215 21.6481 15.9883 21.6661 16.2549C21.6707 16.3224 21.6752 16.39 21.6801 16.4575C21.6924 16.626 21.7766 16.7834 21.9638 16.7811C22.1451 16.7789 22.2403 16.6186 22.2271 16.45L22.2157 16.3008C22.1891 15.949 22.1623 15.5961 22.101 15.2499ZM20.9843 15.9374C20.9837 15.9435 20.983 15.9508 20.9823 15.959C20.9793 15.9937 20.975 16.0442 20.9622 16.0925C20.9002 16.328 20.5445 16.3574 20.4628 16.1199C20.4385 16.0494 20.4349 15.9692 20.4347 15.8933C20.4339 15.3966 20.3264 14.9002 20.0769 14.468C19.8204 14.0237 19.4285 13.6504 18.9689 13.4243C18.691 13.2877 18.3906 13.2028 18.0859 13.1522C18.0033 13.1385 17.9201 13.1281 17.8369 13.1178C17.7861 13.1115 17.7352 13.1051 17.6845 13.098C17.5224 13.0754 17.4358 12.9717 17.4435 12.8113C17.4507 12.6611 17.5601 12.5528 17.7232 12.5622C18.2593 12.5927 18.7771 12.7092 19.2538 12.9625C20.223 13.4779 20.7766 14.2913 20.9383 15.3775C20.9409 15.3952 20.9441 15.4128 20.9473 15.4304C20.953 15.4618 20.9586 15.4932 20.961 15.5248C20.9676 15.6121 20.9724 15.6994 20.978 15.8011L20.9852 15.9296C20.9849 15.9319 20.9846 15.9345 20.9843 15.9374ZM19.212 15.5878C19.2322 15.7676 19.3368 15.8763 19.5322 15.8727C19.6211 15.8667 19.7123 15.8047 19.7411 15.6812C19.7573 15.6107 19.7505 15.5333 19.744 15.4595L19.7435 15.4535C19.6511 14.3829 19.0038 13.9128 18.0981 13.8472C17.9532 13.8366 17.8242 13.9405 17.802 14.0737C17.7776 14.2199 17.8635 14.3462 18.0188 14.3844C18.0857 14.4009 18.1539 14.4071 18.2222 14.4133C18.2999 14.4204 18.3778 14.4276 18.454 14.4497C18.5668 14.4825 18.6746 14.5332 18.7697 14.6027C18.9711 14.75 19.0983 14.9727 19.157 15.2132C19.1828 15.3188 19.1947 15.4283 19.2064 15.5371C19.2082 15.554 19.2101 15.5709 19.212 15.5878Z" fill="white"/>
<path fill-rule="evenodd" clip-rule="evenodd" d="M34.8604 17.5006C34.8604 27.1659 27.0566 35.0012 17.4302 35.0012C7.80376 35.0012 0 27.1659 0 17.5006C0 7.83528 7.80376 0 17.4302 0C27.0566 0 34.8604 7.83528 34.8604 17.5006ZM26.6452 12.2768L26.6509 12.2999C27.2266 14.94 27.2266 17.6171 26.6509 20.2571L26.6452 20.2802C26.1794 22.1705 24.0798 24.1991 22.1516 24.6211L22.1299 24.6256C20.5708 24.9242 19.0002 25.0733 17.4303 25.0733C16.9683 25.0733 16.5062 25.0588 16.0443 25.0329L13.9149 27.2553C13.3878 27.8065 12.4608 27.4314 12.4608 26.6675V24.5574C10.6046 24.0252 8.66129 22.0898 8.21478 20.2802L8.2096 20.2571C7.63386 17.6171 7.63386 14.9398 8.2096 12.2999L8.21478 12.2768C8.6811 10.3865 10.7808 8.35797 12.7084 7.93597L12.7308 7.93146C15.8489 7.33412 19.0111 7.33412 22.1299 7.93146L22.1516 7.93597C24.0799 8.35797 26.1795 10.3864 26.6452 12.2768Z" fill="white"/>
</svg>
