<svg width="35" height="36" viewBox="0 0 35 36" fill="none" xmlns="http://www.w3.org/2000/svg">
<path d="M17.4302 0C7.80523 0 0 7.83676 0 17.5006C0 27.1644 7.80523 35.0012 17.4302 35.0012C27.0551 35.0012 34.8604 27.1644 34.8604 17.5006C34.8604 7.83676 27.0551 0 17.4302 0ZM17.7996 27.69C17.7999 27.69 17.7993 27.69 17.7996 27.69H17.7954C16.0493 27.6892 14.3336 27.2496 12.8099 26.4154L7.27969 27.8715L8.75977 22.4453C7.84672 20.8575 7.36639 19.0561 7.36719 17.2106C7.36958 11.4372 12.0495 6.7403 17.7996 6.7403C20.5901 6.74137 23.2096 7.83195 25.179 9.81097C27.1488 11.7903 28.2328 14.4211 28.2318 17.2189C28.2294 22.9925 23.5489 27.69 17.7996 27.69Z" fill="white"/>
<path d="M17.803 8.50891C13.0202 8.50891 9.13045 12.4127 9.12832 17.2114C9.12779 18.8558 9.58631 20.4573 10.4541 21.8429L10.6603 22.1722L9.78419 25.3838L13.0659 24.5197L13.3827 24.7082C14.7138 25.5013 16.2399 25.9209 17.7958 25.9214H17.7993C22.5784 25.9214 26.4681 22.0173 26.4702 17.2184C26.471 14.8927 25.5699 12.7062 23.9329 11.0613C22.2959 9.41631 20.1187 8.50971 17.803 8.50891ZM22.9031 20.9531C22.6858 21.5641 21.6446 22.122 21.1438 22.1973C20.6945 22.2646 20.1264 22.2926 19.502 22.0937C19.1232 21.973 18.6378 21.8119 18.0158 21.5425C15.4011 20.4092 13.6933 17.7666 13.563 17.5919C13.4327 17.4173 12.4986 16.1732 12.4986 14.8852C12.4986 13.5976 13.172 12.9644 13.4109 12.7027C13.65 12.4408 13.9324 12.3754 14.1061 12.3754C14.2798 12.3754 14.4537 12.377 14.6056 12.3844C14.7657 12.3924 14.9806 12.3233 15.192 12.8336C15.4093 13.3575 15.9306 14.6452 15.9958 14.776C16.0609 14.9071 16.1043 15.0599 16.0176 15.2345C15.9306 15.4092 15.6418 15.786 15.366 16.1294C15.2503 16.2733 15.0995 16.4015 15.2516 16.6634C15.4035 16.9251 15.9269 17.7821 16.7016 18.4758C17.6974 19.3672 18.5373 19.6433 18.798 19.7744C19.0583 19.9053 19.2105 19.8834 19.3626 19.709C19.5145 19.5344 20.0142 18.945 20.1879 18.6831C20.3616 18.4211 20.5355 18.4649 20.7743 18.5522C21.0134 18.6393 22.2948 19.2724 22.5555 19.4033C22.8161 19.5344 22.9898 19.5998 23.055 19.709C23.1204 19.8182 23.1204 20.3419 22.9031 20.9531Z" fill="white"/>
</svg>
