<svg width="35" height="36" viewBox="0 0 35 36" fill="none" xmlns="http://www.w3.org/2000/svg">
<path d="M17.4302 35.0012C27.0589 35.0012 34.8604 27.1682 34.8604 17.5006C34.8604 7.83297 27.0589 0 17.4302 0C7.80146 0 0 7.83297 0 17.5006C0 27.1682 7.80146 35.0012 17.4302 35.0012ZM7.97576 17.1214L24.7814 10.6156C25.5614 10.3326 26.2426 10.8066 25.9899 11.9908L25.9913 11.9894L23.1299 25.5246C22.9178 26.4842 22.3499 26.7176 21.5553 26.2655L17.1978 23.041L15.096 25.074C14.8636 25.3073 14.6675 25.5042 14.2172 25.5042L14.5266 21.0518L22.6026 13.7263C22.9541 13.4157 22.5242 13.2407 22.0608 13.5498L12.0806 19.8588L7.77822 18.5113C6.84425 18.2137 6.82392 17.5735 7.97576 17.1214Z" fill="white"/>
</svg>
