<svg width="35" height="36" viewBox="0 0 35 36" fill="none" xmlns="http://www.w3.org/2000/svg">
<path d="M14.4755 17.2735C14.4755 18.818 15.7274 20.0699 17.2718 20.0699C18.8161 20.0699 20.0681 18.8179 20.0681 17.2735C20.0681 15.7291 18.8161 14.4771 17.2718 14.4771C15.7274 14.4771 14.4755 15.7291 14.4755 17.2735Z" fill="white"/>
<path fill-rule="evenodd" clip-rule="evenodd" d="M20.8488 24.3408C22.7769 24.3408 24.34 22.7777 24.34 20.8495V13.6975C24.34 11.7693 22.7769 10.2062 20.8488 10.2062H13.697C11.7689 10.2062 10.2058 11.7693 10.2058 13.6975V20.8495C10.2058 22.7777 11.7689 24.3408 13.697 24.3408H20.8488ZM12.6954 17.2735C12.6954 14.75 14.7484 12.697 17.2718 12.697C19.7952 12.697 21.8481 14.75 21.8481 17.2735C21.8481 19.797 19.7952 21.85 17.2718 21.85C14.7484 21.85 12.6954 19.797 12.6954 17.2735ZM21.8584 13.828C22.464 13.828 22.955 13.337 22.955 12.7314C22.955 12.1257 22.464 11.6348 21.8584 11.6348C21.2528 11.6348 20.7618 12.1257 20.7618 12.7314C20.7618 13.337 21.2528 13.828 21.8584 13.828Z" fill="white"/>
<path fill-rule="evenodd" clip-rule="evenodd" d="M35 17.5006C35 27.1682 27.1673 35.0012 17.5 35.0012C7.83271 35.0012 0 27.1682 0 17.5006C0 7.83297 7.83271 0 17.5 0C27.1673 0 35 7.83297 35 17.5006ZM13.697 8.42612H20.8488C23.7553 8.42612 26.12 10.7908 26.12 13.6975V20.8495C26.12 23.7562 23.7554 26.1209 20.8488 26.1209H13.697C10.7905 26.1209 8.42581 23.7562 8.42581 20.8495V13.6975C8.42581 10.7908 10.7905 8.42612 13.697 8.42612Z" fill="white"/>
</svg>
