<svg width="140" height="140" viewBox="0 0 140 140" fill="none" xmlns="http://www.w3.org/2000/svg">
<rect width="140" height="140" fill="#FCC53B"/>
<path d="M120.405 99.9764C118.814 99.9764 117.318 98.6838 117.318 97.0935C117.318 95.4994 118.916 94.2106 120.508 94.2106C121.353 94.2106 124.238 94.2106 124.238 89.2784V81.4077C124.238 74.5184 117.817 68.9139 110.934 68.9139H26.4259C19.5424 68.9139 14.7619 74.5184 14.7619 81.4077V88.612C14.7619 91.5275 16.3138 93.8995 19.2255 93.8995H23.545C25.1353 93.8995 26.4259 95.1901 26.4259 96.7824C26.4259 98.3746 25.1353 99.6652 23.545 99.6652H19.2255C13.1351 99.6652 9 94.7081 9 88.612V81.4077C9 71.3397 16.3656 63.1482 26.4259 63.1482H110.934C120.996 63.1482 130 71.3397 130 81.4077V89.2784C130 95.7779 125.986 99.9764 120.405 99.9764Z" fill="black"/>
<path d="M94.6094 99.6652H48.5141C46.9238 99.6652 45.6332 98.3745 45.6332 96.7823C45.6332 95.1901 46.9238 93.8994 48.5141 93.8994H94.6094C96.1997 93.8994 97.4903 95.1901 97.4903 96.7823C97.4903 98.3745 96.1997 99.6652 94.6094 99.6652Z" fill="black"/>
<path d="M94.5318 66.9914C92.9588 66.9914 91.6739 65.2513 91.6508 63.6725C91.5106 53.5488 78.8728 41.9885 62.171 41.9885C45.9147 41.9885 32.6892 51.4726 32.6892 63.2749C32.6892 64.8671 31.3986 66.0983 29.8083 66.0983C28.218 66.0983 26.9273 64.7788 26.9273 63.1866C26.9273 48.2037 42.7361 36 62.171 36C80.7416 36 97.213 49.1467 97.4127 63.6014C97.4358 65.1917 96.1643 65.0707 94.5721 66.9914C94.5587 66.9914 94.5452 66.9914 94.5318 66.9914Z" fill="black"/>
<path d="M107.941 112.971C100.143 112.971 93.7989 106.624 93.7989 98.8222C93.7989 91.0206 100.143 84.6729 107.941 84.6729C115.736 84.6729 122.08 91.0206 122.08 98.8222C122.08 106.624 115.736 112.971 107.941 112.971ZM107.941 90.4386C103.32 90.4386 99.5608 94.1992 99.5608 98.8222C99.5608 103.445 103.32 107.206 107.941 107.206C112.56 107.206 116.318 103.445 116.318 98.8222C116.318 94.1992 112.56 90.4386 107.941 90.4386Z" fill="black"/>
<path d="M36.6104 111.051C28.8126 111.051 22.4707 104.701 22.4707 96.9012C22.4707 89.0977 28.8126 82.75 36.6104 82.75C44.4063 82.75 50.7501 89.0977 50.7501 96.9012C50.7501 104.701 44.4063 111.051 36.6104 111.051ZM36.6104 88.5157C31.9913 88.5157 28.2326 92.2783 28.2326 96.9012C28.2326 101.524 31.9913 105.283 36.6104 105.283C41.2295 105.283 44.9882 101.524 44.9882 96.9012C44.9882 92.2783 41.2295 88.5157 36.6104 88.5157Z" fill="black"/>
<path d="M61.818 67.9536C60.2277 67.9536 58.9371 66.6611 58.9371 65.0708V40.0852C58.9371 38.4911 60.2277 37.2004 61.818 37.2004C63.4083 37.2004 64.699 38.4911 64.699 40.0852V65.0708C64.699 66.6611 63.4083 67.9536 61.818 67.9536Z" fill="black"/>
<path d="M125.339 80.4454H117.656C116.066 80.4454 114.775 79.1548 114.775 77.5626C114.775 75.9704 116.066 74.6797 117.656 74.6797H125.339C126.929 74.6797 128.22 75.9704 128.22 77.5626C128.22 79.1548 126.929 80.4454 125.339 80.4454Z" fill="black"/>
</svg>
