<svg width="80" height="80" viewBox="0 0 80 80" fill="none" xmlns="http://www.w3.org/2000/svg">
<path d="M6.45153 40C8.58941 40 10.3225 38.2669 10.3225 36.129C10.3225 33.9911 8.58941 32.2581 6.45153 32.2581C4.31366 32.2581 2.58057 33.9911 2.58057 36.129C2.58057 38.2669 4.31366 40 6.45153 40Z" fill="#FCC53B"/>
<path d="M54.1937 42.5806C56.3316 42.5806 58.0647 40.8475 58.0647 38.7096C58.0647 36.5718 56.3316 34.8387 54.1937 34.8387C52.0558 34.8387 50.3228 36.5718 50.3228 38.7096C50.3228 40.8475 52.0558 42.5806 54.1937 42.5806Z" fill="#FCC53B"/>
<path d="M69.6771 36.129C71.815 36.129 73.5481 34.3959 73.5481 32.2581C73.5481 30.1202 71.815 28.3871 69.6771 28.3871C67.5392 28.3871 65.8062 30.1202 65.8062 32.2581C65.8062 34.3959 67.5392 36.129 69.6771 36.129Z" fill="#FCC53B"/>
<path d="M54.1937 23.2259C56.3316 23.2259 58.0647 21.4928 58.0647 19.3549C58.0647 17.217 56.3316 15.4839 54.1937 15.4839C52.0558 15.4839 50.3228 17.217 50.3228 19.3549C50.3228 21.4928 52.0558 23.2259 54.1937 23.2259Z" fill="#FCC53B"/>
<path d="M9.59896 21.2426C10.2777 20.1135 11.4983 19.3548 12.9061 19.3548H14.1938H14.2093C14.297 17.0052 15.8196 14.9419 18.0648 14.1935C18.0661 15.7355 19.0519 17.1032 20.5138 17.5897L21.9357 18.0645V17.0787C21.9357 15.311 22.9344 13.6942 24.5164 12.9032L27.097 15.4839L29.6777 12.9032C31.2596 13.6942 32.2583 15.311 32.2583 17.0787V18.0645L33.6815 17.5897C35.1435 17.1019 36.1306 15.7342 36.1306 14.1935C38.3744 14.9419 39.897 17.0052 39.9848 19.3548H40.0003H41.288C42.6957 19.3548 43.9164 20.1135 44.5951 21.2426L44.8261 20.8297C45.8893 18.9252 46.4519 16.7665 46.4519 14.5845C46.4519 11.5277 45.3564 8.56645 43.3693 6.24903L41.7306 4.33548C39.3693 1.58064 35.9332 0 32.3035 0C30.5125 0 28.7203 0.396129 27.097 1.14581C25.4725 0.394839 23.6828 0 21.8919 0C18.2622 0 14.8261 1.58064 12.4648 4.33548L10.8261 6.24645C8.83767 8.56774 7.74219 11.529 7.74219 14.5845C7.74219 16.7652 8.30477 18.9239 9.36799 20.8284L9.59896 21.2426Z" fill="#FCC53B"/>
<path d="M64.8774 77.4194L65.3574 75.4994C65.6 74.5278 65.9768 73.5936 66.4735 72.7239L69.1858 67.9781C70.351 65.9381 70.9677 63.6168 70.9677 61.2659C70.9677 58.3936 70.0606 55.7317 68.5277 53.5394C70.1045 51.5097 70.9677 49.0401 70.9677 46.4517V43.871H67.4594C64.1561 43.871 60.9858 45.3368 58.7935 47.8104C58.3497 47.7665 57.8994 47.742 57.4439 47.742H50.9445C50.489 47.742 50.0387 47.7665 49.5948 47.8104C47.4013 45.3368 44.231 43.871 40.9277 43.871H38.9897C38.4206 43.6091 37.8348 43.342 37.1923 43.1446L32.2619 41.6284L32.2632 39.56C36.9626 37.5459 40.2297 33.311 41.0735 28.3871H41.311C44.1445 28.3871 46.4516 26.08 46.4516 23.2452C46.4516 20.3884 44.1355 18.0646 41.289 18.0646H41.1097C40.5897 15.7149 38.8942 13.7549 36.5394 12.9704L34.8426 12.4039L34.8413 14.1936C34.84 15.102 34.3084 15.9136 33.4955 16.2813C33.2374 14.3368 32.0452 12.6452 30.2542 11.7497L29.4219 11.3342L27.0968 13.6594L24.7703 11.3329L23.9381 11.7484C22.1471 12.6439 20.9548 14.3355 20.6968 16.2788C19.8839 15.911 19.3535 15.0994 19.3523 14.1923L19.351 12.4026L17.6542 12.9691C15.2994 13.7536 13.6039 15.7136 13.0839 18.0633H12.9045C10.0581 18.0646 7.74194 20.3884 7.74194 23.2452C7.74194 26.08 10.049 28.3871 12.9032 28.3871H13.1226C13.9652 33.311 17.2323 37.5471 21.9316 39.56L21.9329 41.6284L17.0039 43.1459C9.92 45.3239 5.16129 51.7665 5.16129 59.1768V61.9355H2.58065C1.15742 61.9355 0 63.093 0 64.5162V67.0968C0 67.5691 0.136774 68.0065 0.35871 68.3872C0.136774 68.7678 0 69.2052 0 69.6775V72.2581C0 72.7304 0.136774 73.1678 0.35871 73.5484C0.136774 73.9291 0 74.3665 0 74.8388V77.4194C0 78.8426 1.15742 80.0001 2.58065 80.0001H5.16129H12.9032H20.6452H30.9677H46.169H49.2645H59.1213H62.2168H80V77.4194H64.8774ZM43.871 23.2452C43.871 24.6568 42.7239 25.8039 41.2942 25.8065L41.2929 20.6452C42.7148 20.6478 43.871 21.8117 43.871 23.2452ZM10.3226 23.2452C10.3226 21.8129 11.48 20.6478 12.9019 20.6465L12.9006 25.8078H12.8839C11.4723 25.8065 10.3226 24.6568 10.3226 23.2452ZM67.4594 46.4517H68.3871C68.3871 48.2813 67.8284 50.0349 66.8039 51.5278C65.3935 50.1717 63.6916 49.1226 61.8013 48.4762C63.3948 47.1871 65.3961 46.4517 67.4594 46.4517ZM40.9277 46.4517C42.991 46.4517 44.9935 47.1871 46.5858 48.4762C44.6955 49.1226 42.9935 50.1717 41.5832 51.5278C40.5587 50.0362 40 48.2813 40 46.4517H40.9277ZM33.5071 44.711L31.6813 51.4065L28.729 47.7175L31.4581 44.0813L33.5071 44.711ZM15.4813 25.862L15.4826 19.5639C15.4826 18.1884 16.1239 16.9265 17.1677 16.1149C17.7045 17.3665 18.7548 18.3639 20.1045 18.8155L23.2258 19.8542V17.08C23.2258 16.0981 23.6413 15.1923 24.3497 14.5626L27.0968 17.3084L29.8452 14.5613C30.5523 15.191 30.9677 16.0968 30.9677 17.0788V19.8529L34.0903 18.8129C35.44 18.3626 36.4903 17.3652 37.0271 16.1136C38.071 16.9252 38.7123 18.1859 38.7123 19.5626L38.7135 25.8607C38.7135 30.7975 35.7832 35.2426 31.2465 37.1871C30.2981 37.5923 29.6839 38.5213 29.6813 39.5575L29.68 42.1459L27.0968 45.5923L24.5148 42.151L24.5123 39.56C24.5123 38.5265 23.8981 37.5962 22.9484 37.1897C18.4116 35.2439 15.48 30.7988 15.4813 25.862ZM22.7368 44.0813L25.4645 47.7175L22.5123 51.4065L20.6865 44.7136L22.7368 44.0813ZM30.9677 72.2581H20.6452V69.6775H23.2258H30.9677V72.2581ZM20.6452 67.0968H15.4839V64.5162H23.2258V67.0968H20.6452ZM2.58065 69.6775H12.9032V72.2581H2.58065V69.6775ZM12.9032 59.3549H23.2258V61.9355H14.1935H12.9032V59.3549ZM12.9032 56.7742V54.1936H23.2258V56.7742H12.9032ZM7.74194 59.1768C7.74194 52.9072 11.769 47.4555 17.7626 45.6117L18.2194 45.471L19.8942 51.613H12.9032C11.48 51.613 10.3226 52.7704 10.3226 54.1936V56.7742C10.3226 57.2465 10.4594 57.6839 10.6813 58.0646C10.4594 58.4452 10.3226 58.8826 10.3226 59.3549V61.9355H7.74194V59.1768ZM2.58065 64.5162H12.9032V67.0968H2.58065V64.5162ZM5.16129 77.4194H2.58065V74.8388H12.9032V77.4194H5.16129ZM15.4839 77.4194V74.8388C15.4839 74.3665 15.3471 73.9291 15.1252 73.5484C15.3471 73.1678 15.4839 72.7304 15.4839 72.2581V69.6775H18.0645V72.2581C18.0645 72.7304 18.2013 73.1678 18.4232 73.5484C18.2013 73.9291 18.0645 74.3665 18.0645 74.8388V77.4194H15.4839ZM20.6452 77.4194V74.8388H30.9677V77.4194H20.6452ZM33.1897 73.5484C33.4116 73.1678 33.5484 72.7304 33.5484 72.2581V69.6775C33.5484 68.2542 32.391 67.0968 30.9677 67.0968H25.8064V64.5162C25.8064 64.0439 25.6697 63.6065 25.4477 63.2259C25.6697 62.8452 25.8064 62.4078 25.8064 61.9355V59.3549C25.8064 58.8826 25.6697 58.4452 25.4477 58.0646C25.6697 57.6839 25.8064 57.2465 25.8064 56.7742V54.1936C25.8064 53.4813 25.5161 52.8362 25.0477 52.3691L27.0968 49.8078L32.8348 56.982L35.9742 45.4723L36.431 45.613C36.7548 45.7123 37.0864 45.8504 37.4194 45.9962V46.4517C37.4194 49.0401 38.2826 51.5097 39.8594 53.5394C38.3265 55.733 37.4194 58.3949 37.4194 61.2672C37.4194 63.6155 38.0361 65.9368 39.2013 67.9768L41.9135 72.7226C42.4103 73.5936 42.7871 74.5265 43.0297 75.4968L43.5097 77.4194H33.5484V74.8388C33.5484 74.3665 33.4116 73.9291 33.1897 73.5484ZM54.1935 74.8388C54.8335 74.8388 55.4103 74.773 55.9406 74.6684L56.4903 77.4194H51.8968L52.4464 74.6684C52.9755 74.773 53.5535 74.8388 54.1935 74.8388ZM59.1213 77.4194L58.3819 73.7175C59.8581 72.7949 60.4697 71.6259 60.5097 71.5446L58.2103 70.3743C58.1677 70.4517 57.16 72.2581 54.1935 72.2581C51.2271 72.2581 50.2194 70.4517 50.1781 70.3743L47.8787 71.5446C47.9187 71.6259 48.5303 72.7949 50.0065 73.7175L49.2658 77.4194H46.169L45.5329 74.871C45.2335 73.671 44.769 72.5175 44.1548 71.4426L41.4426 66.6968C40.4994 65.0465 40 63.1678 40 61.2659C40 55.2323 44.9097 50.3226 50.9432 50.3226H57.4426C63.4774 50.3226 68.3871 55.2336 68.3871 61.2672C68.3871 63.1691 67.8877 65.0465 66.9458 66.6968L64.2335 71.4426C63.6181 72.5175 63.1548 73.6723 62.8555 74.8723L62.2181 77.4194H59.1213Z" fill="black"/>
<path d="M54.1934 56.7742C49.1289 56.7742 45.1611 59.6078 45.1611 63.2258C45.1611 66.8439 49.1289 69.6775 54.1934 69.6775C59.2579 69.6775 63.2256 66.8439 63.2256 63.2258C63.2256 59.6078 59.2579 56.7742 54.1934 56.7742ZM54.1934 67.0968C50.6966 67.0968 47.7418 65.3239 47.7418 63.2258C47.7418 61.1278 50.6966 59.3549 54.1934 59.3549C57.6902 59.3549 60.645 61.1278 60.645 63.2258C60.645 65.3239 57.6902 67.0968 54.1934 67.0968Z" fill="black"/>
<path d="M51.6131 64.5162C52.3257 64.5162 52.9034 63.9385 52.9034 63.2259C52.9034 62.5132 52.3257 61.9355 51.6131 61.9355C50.9004 61.9355 50.3228 62.5132 50.3228 63.2259C50.3228 63.9385 50.9004 64.5162 51.6131 64.5162Z" fill="black"/>
<path d="M47.742 55.4839C48.4546 55.4839 49.0323 54.9062 49.0323 54.1936C49.0323 53.481 48.4546 52.9033 47.742 52.9033C47.0294 52.9033 46.4517 53.481 46.4517 54.1936C46.4517 54.9062 47.0294 55.4839 47.742 55.4839Z" fill="black"/>
<path d="M56.7742 64.5162C57.4868 64.5162 58.0645 63.9385 58.0645 63.2259C58.0645 62.5132 57.4868 61.9355 56.7742 61.9355C56.0616 61.9355 55.4839 62.5132 55.4839 63.2259C55.4839 63.9385 56.0616 64.5162 56.7742 64.5162Z" fill="black"/>
<path d="M60.6453 55.4839C61.3579 55.4839 61.9356 54.9062 61.9356 54.1936C61.9356 53.481 61.3579 52.9033 60.6453 52.9033C59.9327 52.9033 59.355 53.481 59.355 54.1936C59.355 54.9062 59.9327 55.4839 60.6453 55.4839Z" fill="black"/>
<path d="M33.5481 23.2258C34.2608 23.2258 34.8385 22.6482 34.8385 21.9355C34.8385 21.2229 34.2608 20.6452 33.5481 20.6452C32.8355 20.6452 32.2578 21.2229 32.2578 21.9355C32.2578 22.6482 32.8355 23.2258 33.5481 23.2258Z" fill="black"/>
<path d="M20.6453 23.2258C21.3579 23.2258 21.9356 22.6482 21.9356 21.9355C21.9356 21.2229 21.3579 20.6452 20.6453 20.6452C19.9327 20.6452 19.355 21.2229 19.355 21.9355C19.355 22.6482 19.9327 23.2258 20.6453 23.2258Z" fill="black"/>
<path d="M27.0953 36.129C29.1792 36.129 31.0527 34.9716 31.9843 33.1071L32.1198 32.8348L29.8114 31.68L29.676 31.9523C29.1843 32.9368 28.196 33.5471 27.0953 33.5471C25.9947 33.5471 25.0076 32.9355 24.5147 31.9523L24.3792 31.68L22.0708 32.8348L22.2063 33.1071C23.1392 34.9716 25.0127 36.129 27.0953 36.129Z" fill="black"/>
<path d="M26.3821 30.8323L27.8079 30.1188C28.4246 29.8104 28.884 29.2814 29.1021 28.6272C29.3201 27.973 29.2711 27.2723 28.9627 26.6569L28.3859 25.502V23.2259H25.8053V25.8065C25.8053 26.0065 25.8517 26.2052 25.9408 26.3833L26.6543 27.8091L25.2285 28.5227L26.3821 30.8323Z" fill="black"/>
<path d="M70.9638 16.7742H68.3832C67.6709 16.7742 67.0929 16.1961 67.0929 15.4839H64.5122C64.5122 17.6181 66.249 19.3548 68.3832 19.3548V21.9355H70.9638V19.3548C73.098 19.3548 74.8348 17.6181 74.8348 15.4839C74.8348 13.3497 73.098 11.6129 70.9638 11.6129H68.3832C67.6709 11.6129 67.0929 11.0348 67.0929 10.3226C67.0929 9.61033 67.6709 9.03226 68.3832 9.03226H70.9638C71.6761 9.03226 72.2541 9.61033 72.2541 10.3226H74.8348C74.8348 8.18839 73.098 6.45162 70.9638 6.45162V3.87097H68.3832V6.45162C66.249 6.45162 64.5122 8.18839 64.5122 10.3226C64.5122 12.4568 66.249 14.1936 68.3832 14.1936H70.9638C71.6761 14.1936 72.2541 14.7716 72.2541 15.4839C72.2541 16.1961 71.6761 16.7742 70.9638 16.7742Z" fill="black"/>
<path d="M52.9033 15.4839H55.484V18.0646H52.9033V15.4839Z" fill="black"/>
<path d="M52.9033 20.6452H55.484V23.2258H52.9033V20.6452Z" fill="black"/>
<path d="M55.4839 18.0646H58.0645V20.6452H55.4839V18.0646Z" fill="black"/>
<path d="M50.3228 18.0646H52.9034V20.6452H50.3228V18.0646Z" fill="black"/>
<path d="M68.3872 28.387H70.9679V30.9677H68.3872V28.387Z" fill="black"/>
<path d="M68.3872 33.5483H70.9679V36.129H68.3872V33.5483Z" fill="black"/>
<path d="M70.9678 30.9677H73.5484V33.5483H70.9678V30.9677Z" fill="black"/>
<path d="M65.8062 30.9677H68.3868V33.5483H65.8062V30.9677Z" fill="black"/>
<path d="M5.16113 32.258H7.74178V34.8386H5.16113V32.258Z" fill="black"/>
<path d="M5.16113 37.4193H7.74178V40H5.16113V37.4193Z" fill="black"/>
<path d="M7.74219 34.8387H10.3228V37.4193H7.74219V34.8387Z" fill="black"/>
<path d="M2.58057 34.8387H5.16121V37.4193H2.58057V34.8387Z" fill="black"/>
<path d="M52.9033 34.8387H55.484V37.4193H52.9033V34.8387Z" fill="black"/>
<path d="M52.9033 40H55.484V42.5807H52.9033V40Z" fill="black"/>
<path d="M55.4839 37.4193H58.0645V40H55.4839V37.4193Z" fill="black"/>
<path d="M50.3228 37.4193H52.9034V40H50.3228V37.4193Z" fill="black"/>
</svg>
