<svg width="80" height="80" viewBox="0 0 80 80" fill="none" xmlns="http://www.w3.org/2000/svg">
<path d="M65.1536 16.7743H59.1368C54.0452 16.7743 49.2556 19.4866 46.6362 23.8517L45.7407 25.3446L51.031 26.6672L49.5252 29.6775H55.8426C56.2891 28.9098 57.1123 28.3872 58.0659 28.3872H65.8078C67.2336 28.3872 68.3884 29.542 68.3884 30.9678V33.5485C69.8142 33.5485 70.9691 34.7033 70.9691 36.1291C70.9691 37.5549 69.8142 38.7098 68.3884 38.7098V46.604L71.7936 44.902C76.8542 42.3691 80 37.2814 80 31.6207C80 23.4349 73.3394 16.7743 65.1536 16.7743Z" fill="#FCC53B"/>
<path d="M69.6774 47.169V39.7781C71.1794 39.2452 72.2581 37.8103 72.2581 36.1277C72.2581 34.4452 71.1794 33.0103 69.6774 32.4774V30.9677C69.6774 28.8335 67.9406 27.0968 65.8064 27.0968H58.0645C55.9303 27.0968 54.1935 28.8335 54.1935 30.9677V37.4194C54.1935 40.9768 57.0877 43.871 60.6452 43.871H61.9355V46.4516H51.1058L38.9871 23.2258H47.0697C47.711 22.2748 48.449 21.4077 49.2826 20.6452H37.6181C36.7664 19.1548 35.4723 18.0181 33.9419 17.3768C33.7019 16.7729 33.5484 16.1445 33.5484 15.4839C33.5484 12.64 35.8594 10.3265 38.7045 10.3265H38.7123C38.7987 10.3381 38.8852 10.3497 38.9755 10.3535L40.031 10.4077L40.2916 9.38323C41.3084 5.37806 44.9032 2.58065 49.0323 2.58065C53.3639 2.58065 57.0929 5.6671 57.8994 9.92L58.2116 11.5665L59.7239 10.8439C60.4452 10.4981 61.1897 10.3226 61.9355 10.3226C64.7819 10.3226 67.0968 12.6374 67.0968 15.4839C67.0968 15.9665 67.0103 16.431 66.8826 16.8839C67.7561 16.9858 68.6077 17.1613 69.4297 17.409C69.5884 16.7845 69.6774 16.1432 69.6774 15.4839C69.6774 11.2142 66.2052 7.74194 61.9355 7.74194C61.3032 7.74194 60.6761 7.82323 60.0594 7.98323C58.5174 3.28 54.0942 0 49.0323 0C44.0658 0 39.7006 3.14581 38.0852 7.76774C35.1135 8.00645 32.6116 9.92903 31.5355 12.5794C29.8039 11.911 28.5574 10.3265 28.3845 8.41032C28.3471 7.99226 28.1032 7.62065 27.7406 7.41032C27.3755 7.2 26.929 7.18194 26.5484 7.35871C24.3781 8.36387 21.7948 7.67355 20.4284 5.73677C20.1923 5.38323 19.7948 5.17161 19.369 5.16645C18.9135 5.13935 18.5406 5.36903 18.2955 5.71613C16.9148 7.67484 14.3342 8.36387 12.1187 7.34065C11.7394 7.17677 11.3032 7.20516 10.9484 7.41677C10.5935 7.62968 10.3613 7.99742 10.3252 8.41032C10.111 10.8 8.21935 12.6903 5.82839 12.9058C5.41032 12.9432 5.03871 13.1871 4.82968 13.5497C4.61935 13.9135 4.60258 14.36 4.77806 14.7419C5.78323 16.9148 5.09161 19.4942 3.09677 20.9032C2.76645 21.151 2.57935 21.5445 2.58452 21.9561C2.59097 22.369 2.79742 22.7561 3.13419 22.9935C5.09161 24.3742 5.78194 26.9548 4.75871 29.1703C4.59613 29.5497 4.62452 29.9845 4.83613 30.3406C5.04903 30.6955 5.41677 30.9277 5.82968 30.9639C8.21935 31.1781 10.111 33.0697 10.3252 35.4606C10.3626 35.8787 10.6065 36.249 10.969 36.4594C11.3342 36.6684 11.7806 36.6877 12.16 36.511C13.4026 35.9381 14.8194 35.92 16.0671 36.4116L10.8297 46.4516H0V49.0323H36.129V56.7742H7.74194V54.1935H0V80H9.67742H10.9677H22.5806H23.871H30.3226H31.6129H46.4516H51.6129H63.2258C68.2065 80 72.2581 75.9471 72.2581 70.9677V51.6129C72.2581 49.711 71.2129 48.0645 69.6774 47.169ZM61.6981 69.6774C61.8426 69.2723 61.9355 68.8413 61.9355 68.3871C61.9355 67.9329 61.8426 67.5019 61.6981 67.0968H65.8064C67.2645 67.0968 68.5961 66.5923 69.6774 65.7729V69.6774H61.6981ZM59.3548 68.3871C59.3548 69.0993 58.7755 69.6774 58.0645 69.6774H49.0323H46.4516H40C39.289 69.6774 38.7097 69.0993 38.7097 68.3871V67.0968H47.8761H51.6129H58.0645C58.7755 67.0968 59.3548 67.6748 59.3548 68.3871ZM41.2903 64.5161H38.7097V47.7419C38.7097 47.0297 39.289 46.4516 40 46.4516H41.2903V64.5161ZM46.4516 64.5161H43.871V49.0323H57.711C55.56 50.9252 54.1935 53.6903 54.1935 56.7742V58.9923L52.7445 59.3548H51.6129C48.7664 59.3548 46.4516 61.6697 46.4516 64.5161ZM56.7742 56.7742C56.7742 53.2026 59.209 50.1961 62.5045 49.3071C62.1523 50.0039 61.9355 50.7794 61.9355 51.6129V57.0568L56.7742 58.3471V56.7742ZM64.5161 51.6129C64.5161 50.1897 65.6735 49.0323 67.0968 49.0323C68.52 49.0323 69.6774 50.1897 69.6774 51.6129V54.1935H64.5161V51.6129ZM60.6452 41.2903C58.511 41.2903 56.7742 39.5535 56.7742 37.4194V30.9677C56.7742 30.2568 57.3535 29.6774 58.0645 29.6774H65.8064C66.5174 29.6774 67.0968 30.2568 67.0968 30.9677V34.8387H68.3871C69.0981 34.8387 69.6774 35.4181 69.6774 36.129C69.6774 36.84 69.0981 37.4194 68.3871 37.4194H67.0968V46.4516H64.5161V41.2903H60.6452ZM12.5871 33.6658C11.8529 31.3006 9.99613 29.4413 7.63226 28.7058C8.17419 26.3006 7.49806 23.769 5.81548 21.9394C7.49032 20.1277 8.17161 17.5948 7.62581 15.1665C9.99097 14.4323 11.849 12.5755 12.5845 10.2129C14.9897 10.7535 17.5226 10.0787 19.351 8.39613C21.1626 10.0697 23.6942 10.751 26.1239 10.2065C26.8439 12.5355 28.6555 14.369 30.9858 15.1252C30.9794 15.2452 30.9677 15.3626 30.9677 15.4839C30.9677 15.9252 31.0168 16.3561 31.089 16.7819C31.0477 16.7819 31.009 16.7742 30.9677 16.7742C30.1097 16.7742 29.2826 16.9303 28.4981 17.1974C26.7432 13.8142 23.2297 11.6129 19.3548 11.6129C13.6632 11.6129 9.03226 16.2439 9.03226 21.9355C9.03226 27.2594 13.0852 31.6542 18.2658 32.2L17.2658 34.1161C15.8 33.4774 14.16 33.3148 12.5871 33.6658ZM19.5897 29.6632C19.511 29.6658 19.4348 29.6774 19.3548 29.6774C15.0852 29.6774 11.6129 26.2052 11.6129 21.9355C11.6129 17.6658 15.0852 14.1935 19.3548 14.1935C22.2723 14.1935 24.9148 15.8594 26.2258 18.4168C25.3858 19.0774 24.6761 19.9135 24.1613 20.8994L19.5897 29.6632ZM26.4503 22.0929C27.3316 20.4039 29.0619 19.3548 30.9677 19.3548C32.8735 19.3548 34.6039 20.4039 35.4852 22.0929L48.1935 46.4516H43.871V43.871H40C38.32 43.871 36.9006 44.9535 36.3665 46.4516H13.7419L26.4503 22.0929ZM36.129 59.3548V61.9355H7.74194V59.3548H36.129ZM33.5484 64.5161L29.9355 67.2271C28.7497 68.1161 27.7961 69.2542 27.0968 70.5303C26.3974 69.2542 25.4439 68.1161 24.2581 67.2271L20.6452 64.5161H33.5484ZM12.9032 64.5161L9.29032 67.2271C8.71871 67.6555 8.20645 68.1484 7.74194 68.6787V64.5161H12.9032ZM2.58065 56.7742H5.16129V75.4839C5.16129 76.1794 5.3329 76.831 5.61419 77.4193H2.58065V56.7742ZM22.5806 77.4193C21.5135 77.4193 20.6452 76.551 20.6452 75.4839C20.6452 74.4168 21.5135 73.5484 22.5806 73.5484H23.2258V70.9677H22.5806C20.0903 70.9677 18.0645 72.9935 18.0645 75.4839C18.0645 76.1794 18.2361 76.831 18.5174 77.4193H15.031C15.3123 76.831 15.4839 76.1794 15.4839 75.4839C15.4839 72.9935 13.4581 70.9677 10.9677 70.9677H10.3226V73.5484H10.9677C12.0348 73.5484 12.9032 74.4168 12.9032 75.4839C12.9032 76.551 12.0348 77.4193 10.9677 77.4193H9.67742C8.61032 77.4193 7.74194 76.551 7.74194 75.4839C7.74194 73.0593 8.89935 70.7445 10.8387 69.2903L16.7742 64.8387L22.7097 69.2903C24.649 70.7445 25.8064 73.0593 25.8064 75.4839C25.8064 76.551 24.9381 77.4193 23.871 77.4193H22.5806ZM30.3226 77.4193C29.2555 77.4193 28.3871 76.551 28.3871 75.4839C28.3871 73.0593 29.5445 70.7445 31.4839 69.2903L36.129 65.8064V68.3871C36.129 70.5213 37.8658 72.2581 40 72.2581H42.0077C41.5639 73.0206 41.2903 73.8942 41.2903 74.8387C41.2903 75.7832 41.5639 76.6568 42.0077 77.4193H35.6761C35.9574 76.831 36.129 76.1794 36.129 75.4839C36.129 72.9935 34.1032 70.9677 31.6129 70.9677H30.9677V73.5484H31.6129C32.68 73.5484 33.5484 74.4168 33.5484 75.4839C33.5484 76.551 32.68 77.4193 31.6129 77.4193H30.3226ZM63.2258 77.4193H51.6129H46.4516C45.0284 77.4193 43.871 76.2619 43.871 74.8387C43.871 73.4155 45.0284 72.2581 46.4516 72.2581H49.0323H69.5471C68.9471 75.1987 66.3406 77.4193 63.2258 77.4193ZM65.8064 64.5161H51.6129H49.0323C49.0323 63.0929 50.1897 61.9355 51.6129 61.9355H52.9032L62.8258 59.489L64.8942 61.5574L66.7187 59.7329L64.5161 57.5303V56.7742H69.6774V60.6452C69.6774 62.7794 67.9406 64.5161 65.8064 64.5161Z" fill="black"/>
</svg>
