<svg width="80" height="80" viewBox="0 0 80 80" fill="none" xmlns="http://www.w3.org/2000/svg">
<g clip-path="url(#clip0_451_186)">
<path d="M59.9858 7.82423H57.3777V5.21613H59.9858V7.82423ZM54.7696 7.82423H52.1615V5.21613H54.7696V7.82423ZM49.5534 7.82423H46.9453V5.21613H49.5534V7.82423Z" fill="black"/>
<path d="M19.5607 3.91211C8.77495 3.91211 0 12.6871 0 23.4729V39.1215C0 44.3703 2.47769 49.34 6.62718 52.5402C8.18291 51.3965 10.006 50.5789 12.0116 50.215L15.6473 49.5539L15.6447 46.5011C15.6447 45.9795 15.3343 45.5074 14.8544 45.3027C9.79602 43.1354 6.51634 38.1604 6.51764 32.6573L6.52025 22.504C6.52025 23.7585 7.53871 24.7769 8.79321 24.7769C9.77125 24.7769 10.641 24.151 10.9501 23.2225L11.2122 22.4362C11.5252 21.4972 12.4041 20.8648 13.3926 20.8648C14.0016 20.8648 14.5871 21.1073 15.0174 21.5377L15.6486 22.1688L16.2798 21.5377C16.7101 21.1073 17.2956 20.8648 17.9046 20.8648H18.0454C18.9505 20.8648 19.7537 21.4438 20.0406 22.3031C20.5323 23.7806 21.9159 24.7769 23.4729 24.7769C24.5279 24.7769 25.502 24.3205 26.1749 23.5668L26.3053 23.6972C26.9964 24.3883 27.9354 24.7769 28.9134 24.7769C30.9503 24.7769 32.6012 23.126 32.6012 21.0891V20.8648L32.6039 32.6573C32.6052 38.1604 29.3255 43.1353 24.2671 45.304C23.7872 45.51 23.4768 45.9808 23.4768 46.5024L23.4742 49.5539L27.1099 50.215C29.1142 50.5802 30.9347 51.3991 32.4904 52.5441C36.6425 49.3439 39.1215 44.3729 39.1215 39.1215V23.4729C39.1215 12.6871 30.3465 3.91211 19.5607 3.91211Z" fill="#FCC53B"/>
<path d="M59.9863 16.9527H75.6349V22.1689H59.9863V16.9527Z" fill="#FCC53B"/>
<path d="M76.9388 0H45.6416C43.4847 0 41.7295 1.75525 41.7295 3.91215V35.2094C41.7295 37.3663 43.4847 39.1215 45.6416 39.1215H57.3781V41.1898C57.3781 42.9254 58.7904 44.3377 60.5261 44.3377C61.3554 44.3377 62.1665 44.0013 62.7521 43.4158L67.0463 39.1215H76.9388C79.0957 39.1215 80.851 37.3663 80.851 35.2094V3.91215C80.851 1.75525 79.0957 0 76.9388 0ZM45.6416 2.6081H76.9388C77.6587 2.6081 78.2429 3.19362 78.2429 3.91215V10.4324H44.3376V3.91215C44.3376 3.19362 44.9218 2.6081 45.6416 2.6081ZM76.9388 36.5134H65.9665L60.9081 41.5718C60.5978 41.8822 59.9862 41.6305 59.9862 41.1898V36.5134H45.6416C44.9218 36.5134 44.3376 35.9279 44.3376 35.2094V13.0405H78.2429V35.2094C78.2429 35.9279 77.6587 36.5134 76.9388 36.5134Z" fill="black"/>
<path d="M26.0814 29.9931C26.8016 29.9931 27.3854 29.4093 27.3854 28.6891C27.3854 27.9689 26.8016 27.385 26.0814 27.385C25.3612 27.385 24.7773 27.9689 24.7773 28.6891C24.7773 29.4093 25.3612 29.9931 26.0814 29.9931Z" fill="black"/>
<path d="M13.0404 29.9931C13.7606 29.9931 14.3444 29.4093 14.3444 28.6891C14.3444 27.9689 13.7606 27.385 13.0404 27.385C12.3202 27.385 11.7363 27.9689 11.7363 28.6891C11.7363 29.4093 12.3202 29.9931 13.0404 29.9931Z" fill="black"/>
<path d="M26.0815 35.2094V33.9054H13.041V35.2094C13.041 38.8047 15.966 41.7297 19.5613 41.7297C23.1565 41.7297 26.0815 38.8047 26.0815 35.2094ZM15.8721 36.5135H23.2504C22.7119 38.0314 21.2617 39.1216 19.5613 39.1216C17.8608 39.1216 16.4107 38.0314 15.8721 36.5135Z" fill="black"/>
<path d="M61.2903 52.1621H37.8174C36.8029 52.1621 35.8848 52.5598 35.1885 53.1962C33.1007 50.9845 30.3778 49.4835 27.342 48.9319L24.7782 48.4664L24.7796 46.5012C30.3257 44.1252 33.9079 38.6899 33.9066 32.6561L33.9053 19.5608H31.2972V20.8648V21.0878C31.2972 22.4036 30.2279 23.4729 28.9134 23.4729C28.5678 23.4729 28.2301 23.3895 27.9184 23.246C27.9993 23.0726 28.0814 22.8992 28.144 22.7153L28.6226 21.2769L26.1475 20.4528L25.6702 21.8898C25.3533 22.8366 24.4718 23.4729 23.4729 23.4729C22.474 23.4729 21.5925 22.8366 21.2769 21.8911C20.8139 20.4971 19.5151 19.5608 18.0454 19.5608H17.9046C17.0752 19.5608 16.2876 19.8399 15.6499 20.3537C15.0109 19.8399 14.2233 19.5608 13.3939 19.5608C11.8408 19.5608 10.4663 20.5506 9.97729 22.0241L9.71517 22.8105C9.58216 23.2069 9.2105 23.4729 8.79321 23.4729C8.25855 23.4729 7.8243 23.0387 7.8243 22.5027V19.5608H5.2162V20.8648L5.21359 32.6574C5.21229 38.6912 8.79451 44.1252 14.3406 46.5025L14.3419 48.4651L11.7782 48.9319C4.95408 50.1734 0 56.1068 0 63.0457V69.1147C0 75.5867 5.26445 80.8512 11.7364 80.8512H24.7769H26.0797H59.9863C62.863 80.8512 65.2025 78.5117 65.2025 75.635V56.0742C65.2025 53.9173 63.4472 52.1621 61.2903 52.1621ZM36.5134 56.0742C36.5134 55.3544 37.0976 54.7702 37.8174 54.7702H39.1215V73.0269H36.5134V56.0742ZM33.9405 55.7313C33.9301 55.846 33.9053 55.9569 33.9053 56.0742V73.0269H31.2972V60.2941C31.2972 58.3276 30.3557 56.5372 28.7973 55.4157L29.2564 52.2025C31.0833 52.9562 32.6886 54.1638 33.9405 55.7313ZM26.0484 73.0269C25.8802 70.1254 23.4898 67.8107 20.5466 67.8107C18.6727 67.8107 16.9396 68.7353 15.9094 70.2832L15.1491 71.4242L10.4324 69.5359V60.2954C10.4324 59.2222 10.924 58.2376 11.7508 57.6C14.1985 58.8936 17.1157 58.891 19.5607 57.5921C22.0058 58.891 24.923 58.8936 27.3707 57.6C28.1975 58.2363 28.6891 59.2209 28.6891 60.2941V73.0269H26.0484ZM16.9487 46.5012C16.9487 45.4553 16.3267 44.5151 15.3669 44.1043C10.7819 42.1391 7.82039 37.6467 7.82169 32.6574L7.823 25.9298C8.13336 26.0185 8.45546 26.081 8.79321 26.081C10.3359 26.081 11.6999 25.0978 12.1876 23.636L12.4511 22.8483C12.6701 22.1924 13.6038 21.972 14.0968 22.4597L15.6486 24.0141L17.2004 22.461C17.3895 22.2732 17.6386 22.1689 17.9033 22.1689H18.0441C18.3884 22.1689 18.6923 22.388 18.8018 22.7153C19.4747 24.7287 21.3512 26.081 23.4729 26.081C24.4614 26.081 25.3899 25.7785 26.1749 25.2608C26.9808 25.7929 27.9236 26.081 28.9134 26.081C29.7819 26.081 30.5865 25.8385 31.2985 25.4473L31.2998 32.6574C31.3011 37.6467 28.3383 42.1404 23.7559 44.1043C22.7948 44.5151 22.1728 45.4566 22.1728 46.5012L22.1688 50.6428L26.7252 51.4696L26.184 55.2592C24.3244 56.2581 22.0684 56.1785 20.2845 54.9893L19.5607 54.5068L18.837 54.9893C17.0531 56.1772 14.7971 56.2581 12.9375 55.2592L12.3963 51.4696L16.9526 50.6428L16.9487 46.5012ZM2.6081 69.1147V63.0457C2.6081 58.2142 5.54873 53.9864 9.86644 52.2064L10.3255 55.417C8.76582 56.5372 7.8243 58.3289 7.8243 60.2941V69.6116L5.93734 70.5557L7.10446 72.8887L9.18964 71.8467L16.1481 74.6296L18.082 71.7281C18.627 70.9091 19.549 70.4188 20.5479 70.4188C22.0528 70.4188 23.2812 71.5637 23.4416 73.0269H20.8648V76.939C20.8648 77.3981 20.9587 77.8336 21.1047 78.2431H11.7364C6.70412 78.2431 2.6081 74.1471 2.6081 69.1147ZM26.0797 78.2431H24.7769C24.0571 78.2431 23.4729 77.6589 23.4729 76.939V75.635H39.1215C39.1215 77.0734 37.9518 78.2431 36.5134 78.2431H26.0797ZM59.9863 78.2431H41.0045C41.4531 77.4724 41.7296 76.5896 41.7296 75.635H62.5944C62.5944 77.0734 61.4247 78.2431 59.9863 78.2431ZM62.5944 73.0269H41.7296V54.7702H61.2903C62.0102 54.7702 62.5944 55.3544 62.5944 56.0742V73.0269Z" fill="black"/>
<path d="M52.1621 57.3781C50.0052 57.3781 48.25 59.1333 48.25 61.2902C48.25 63.4471 50.0052 65.2024 52.1621 65.2024C54.319 65.2024 56.0743 63.4471 56.0743 61.2902C56.0743 59.1333 54.319 57.3781 52.1621 57.3781ZM52.1621 62.5943C51.4423 62.5943 50.8581 62.01 50.8581 61.2902C50.8581 60.5704 51.4423 59.9862 52.1621 59.9862C52.882 59.9862 53.4662 60.5704 53.4662 61.2902C53.4662 62.01 52.882 62.5943 52.1621 62.5943Z" fill="black"/>
<path d="M50.8575 20.8649H53.4656C54.1854 20.8649 54.7696 21.4504 54.7696 22.1689H57.3777C57.3777 20.012 55.6225 18.2568 53.4656 18.2568V15.6487H50.8575V18.2568C48.7006 18.2568 46.9453 20.012 46.9453 22.1689C46.9453 24.3258 48.7006 26.0811 50.8575 26.0811H53.4656C54.1854 26.0811 54.7696 26.6666 54.7696 27.3851C54.7696 28.1037 54.1854 28.6892 53.4656 28.6892H50.8575C50.1376 28.6892 49.5534 28.1037 49.5534 27.3851H46.9453C46.9453 29.542 48.7006 31.2973 50.8575 31.2973V33.9054H53.4656V31.2973C55.6225 31.2973 57.3777 29.542 57.3777 27.3851C57.3777 25.2282 55.6225 23.473 53.4656 23.473H50.8575C50.1376 23.473 49.5534 22.8875 49.5534 22.1689C49.5534 21.4504 50.1376 20.8649 50.8575 20.8649Z" fill="black"/>
<path d="M59.9863 33.9052H75.6349V26.0809H59.9863V33.9052ZM62.5944 28.689H73.0268V31.2971H62.5944V28.689Z" fill="black"/>
<path d="M59.9863 15.6487H75.6349V18.2568H59.9863V15.6487Z" fill="black"/>
<path d="M59.9863 20.8648H75.6349V23.4729H59.9863V20.8648Z" fill="black"/>
</g>
<defs>
<clipPath id="clip0_451_186">
<rect width="80" height="80" fill="white"/>
</clipPath>
</defs>
</svg>
