<svg width="80" height="80" viewBox="0 0 80 80" fill="none" xmlns="http://www.w3.org/2000/svg">
<path d="M56.7744 24.5161C61.7628 24.5161 65.8067 20.4723 65.8067 15.4839C65.8067 10.4955 61.7628 6.45163 56.7744 6.45163C51.7861 6.45163 47.7422 10.4955 47.7422 15.4839C47.7422 20.4723 51.7861 24.5161 56.7744 24.5161Z" fill="#FCC53B"/>
<path d="M74.8387 67.0968V29.6774C74.8387 26.6452 72.7277 24.111 69.9032 23.4245C70.3264 22.4748 70.7355 21.52 71.1264 20.5548L71.1781 20.4271C71.8942 18.6581 72.2581 16.7961 72.2581 14.8929C72.2581 6.68129 65.4968 0 57.1871 0H56.3613C48.0516 0 41.2903 6.68129 41.2903 14.8929C41.2903 16.7974 41.6542 18.6594 42.3703 20.431L42.4206 20.5548C42.7845 21.4529 43.1677 22.3419 43.56 23.2271H34.6413L36.0465 14.7974C36.1019 14.4671 36.129 14.1342 36.129 13.7987C36.129 10.4594 33.4116 7.74194 30.0723 7.74194H6.05677C2.71742 7.74194 0 10.4594 0 13.7987C0 14.1329 0.0270968 14.4671 0.0825806 14.7948L1.93419 25.9058C2.26064 27.8632 3.49806 29.4439 5.16129 30.2916V67.0968H0V70.9677C0 75.9484 4.05161 80 9.03226 80H70.9677C75.9484 80 80 75.9484 80 70.9677V67.0968H74.8387ZM56.3613 2.58065H57.1871C64.0748 2.58065 69.6774 8.10322 69.6774 14.8929C69.6774 16.4632 69.3781 18 68.7871 19.4581L68.7355 19.5858C65.7084 27.0542 61.689 34.0774 56.7742 40.4865C51.8594 34.0774 47.84 27.0542 44.8116 19.5845L44.7613 19.4606C44.1703 18 43.871 16.4632 43.871 14.8929C43.871 8.10322 49.4735 2.58065 56.3613 2.58065ZM67.0968 30.9677V38.6232C65.9226 37.8477 64.3897 37.2142 62.5652 36.7794C63.8181 34.8852 65 32.9471 66.1084 30.9677H67.0968ZM18.0645 23.2258C20.1987 23.2258 21.9355 24.9626 21.9355 27.0968V28.3871V29.6774V33.0142C21.9355 33.4503 21.3303 33.6994 21.0232 33.3923L16.0181 28.3871H14.1935V27.0968C14.1935 24.9626 15.9303 23.2258 18.0645 23.2258ZM15.4839 18.0645C15.4839 16.6413 16.6413 15.4839 18.0645 15.4839C19.4877 15.4839 20.6452 16.6413 20.6452 18.0645C20.6452 19.4877 19.4877 20.6452 18.0645 20.6452C16.6413 20.6452 15.4839 19.4877 15.4839 18.0645ZM14.9497 30.9677L19.1987 35.2168C19.7871 35.8052 20.569 36.129 21.4013 36.129C23.1187 36.129 24.5161 34.7316 24.5161 33.0142V30.9677H28.2206H33.0142L12.9032 51.0787V30.9677H14.9497ZM50.9832 36.7794C46.9381 37.7445 44.3019 39.6761 43.9213 41.9961L30.3226 55.5948L21.1794 46.4516L36.6632 30.9677H47.44C48.5484 32.9471 49.7303 34.8852 50.9832 36.7794ZM60.9806 39.0981C64.8129 39.809 67.0968 41.3742 67.0968 42.5806C67.0968 44.1587 63.0748 46.4516 56.7742 46.4516C50.4735 46.4516 46.4516 44.1587 46.4516 42.5806C46.4516 41.3742 48.7355 39.809 52.5677 39.0981C53.5948 40.5535 54.6529 41.9871 55.7652 43.3845L56.7742 44.6516L57.7832 43.3845C58.8955 41.9871 59.9535 40.5523 60.9806 39.0981ZM12.9032 54.7277L19.3548 48.2761L33.0142 61.9355H12.9032V54.7277ZM36.6632 61.9355L32.1471 57.4194L44.6761 44.8903C46.4581 47.3574 51.0645 49.0323 56.7742 49.0323C61.0955 49.0323 64.7819 48.071 67.0968 46.5342V61.9355H36.6632ZM44.7561 25.8064C45.1729 26.6735 45.6039 27.5329 46.0477 28.3871H33.1587C33.6671 27.6632 34.0413 26.8323 34.1948 25.9071L34.2116 25.8064H44.7561ZM2.62839 14.369C2.59613 14.1806 2.58065 13.9897 2.58065 13.7987C2.58065 11.8813 4.13935 10.3226 6.05677 10.3226H30.071C31.9897 10.3226 33.5484 11.8813 33.5484 13.7987C33.5484 13.9897 33.5329 14.1806 33.5006 14.3703L31.649 25.4813C31.369 27.1652 29.9265 28.3871 28.2206 28.3871H24.5161V27.0968C24.5161 24.8735 23.3858 22.9084 21.6684 21.7484C22.6271 20.8103 23.2258 19.5084 23.2258 18.0645C23.2258 15.2181 20.911 12.9032 18.0645 12.9032C15.2181 12.9032 12.9032 15.2181 12.9032 18.0645C12.9032 19.5084 13.5019 20.8103 14.4606 21.7484C12.7432 22.9084 11.6129 24.8735 11.6129 27.0968V28.3871H7.90839C6.20129 28.3871 4.76 27.1652 4.47871 25.4826L2.62839 14.369ZM7.74194 30.9523C7.79871 30.9548 7.85161 30.9677 7.90839 30.9677H10.3226V61.9355C10.3226 63.3587 11.48 64.5161 12.9032 64.5161H67.0968C68.52 64.5161 69.6774 63.3587 69.6774 61.9355V30.9677C69.6774 29.6761 68.7213 28.6129 67.4813 28.4258C67.9252 27.5716 68.3574 26.7135 68.7742 25.8452C70.7252 26.0426 72.2581 27.6748 72.2581 29.6774V67.0968H7.74194V30.9523ZM30.9677 69.6774H49.0323V70.9677C49.0323 71.6787 48.4529 72.2581 47.7419 72.2581H32.2581C31.5471 72.2581 30.9677 71.6787 30.9677 70.9677V69.6774ZM77.4193 70.9677C77.4193 74.5252 74.5252 77.4193 70.9677 77.4193H9.03226C5.47484 77.4193 2.58065 74.5252 2.58065 70.9677V69.6774H28.3871V70.9677C28.3871 73.1019 30.1239 74.8387 32.2581 74.8387H47.7419C49.8761 74.8387 51.6129 73.1019 51.6129 70.9677V69.6774H77.4193V70.9677Z" fill="black"/>
<path d="M70.9676 74.8387C71.6802 74.8387 72.2579 74.261 72.2579 73.5483C72.2579 72.8357 71.6802 72.258 70.9676 72.258C70.2549 72.258 69.6772 72.8357 69.6772 73.5483C69.6772 74.261 70.2549 74.8387 70.9676 74.8387Z" fill="black"/>
<path d="M65.8064 74.8387C66.5191 74.8387 67.0968 74.261 67.0968 73.5483C67.0968 72.8357 66.5191 72.258 65.8064 72.258C65.0938 72.258 64.5161 72.8357 64.5161 73.5483C64.5161 74.261 65.0938 74.8387 65.8064 74.8387Z" fill="black"/>
<path d="M56.7742 25.8065C62.4658 25.8065 67.0968 21.1755 67.0968 15.4839C67.0968 9.79228 62.4658 5.16132 56.7742 5.16132C51.0826 5.16132 46.4517 9.79228 46.4517 15.4839C46.4517 21.1755 51.0826 25.8065 56.7742 25.8065ZM50.08 19.3549H51.9626C52.1446 20.3278 52.3988 21.2426 52.7213 22.0671C51.6323 21.3949 50.7226 20.4633 50.08 19.3549ZM49.0323 15.4839C49.0323 15.0439 49.0775 14.6142 49.1484 14.1936H51.6542C51.6297 14.622 51.6129 15.0529 51.6129 15.4839C51.6129 15.9149 51.6297 16.3458 51.6555 16.7742H49.1484C49.0775 16.3536 49.0323 15.9239 49.0323 15.4839ZM56.7742 7.74196C57.4026 7.74196 58.382 9.16777 58.9355 11.6129H54.6142C55.1665 9.16777 56.1458 7.74196 56.7742 7.74196ZM59.2994 14.1936C59.3265 14.6116 59.3549 15.031 59.3549 15.4839C59.3549 15.9368 59.3265 16.3562 59.2994 16.7742H54.2491C54.222 16.3562 54.1936 15.9368 54.1936 15.4839C54.1936 15.031 54.222 14.6116 54.2491 14.1936H59.2994ZM64.5162 15.4839C64.5162 15.9239 64.471 16.3536 64.4 16.7742H61.8942C61.9187 16.3458 61.9355 15.9149 61.9355 15.4839C61.9355 15.0529 61.9187 14.622 61.8929 14.1936H64.3987C64.471 14.6142 64.5162 15.0439 64.5162 15.4839ZM56.7742 23.2258C56.1458 23.2258 55.1665 21.8 54.6129 19.3549H58.9342C58.382 21.8 57.4026 23.2258 56.7742 23.2258ZM60.8284 22.0671C61.1497 21.2426 61.4052 20.3278 61.5871 19.3549H63.4697C62.8258 20.4633 61.9162 21.3949 60.8284 22.0671ZM63.4684 11.6129H61.5858C61.4039 10.64 61.1497 9.72519 60.8271 8.90067C61.9162 9.57293 62.8258 10.5045 63.4684 11.6129ZM52.72 8.90067C52.3988 9.72519 52.1446 10.64 51.9626 11.6129H50.08C50.7226 10.5045 51.6323 9.57293 52.72 8.90067Z" fill="black"/>
<path d="M52.9033 28.3871H55.484V30.9677H52.9033V28.3871Z" fill="black"/>
<path d="M58.0645 28.3871H60.6451V30.9677H58.0645V28.3871Z" fill="black"/>
</svg>
