<svg width="80" height="80" viewBox="0 0 80 80" fill="none" xmlns="http://www.w3.org/2000/svg">
<path d="M56.5746 0C49.1154 0 43.0459 6.36774 43.0459 14.1935V27.0968C43.0459 30.0039 44.4111 32.7303 46.6396 34.4168C47.305 33.9987 48.0343 33.6748 48.8251 33.4916L54.1148 32.2581V29.0323C54.1148 28.6258 53.9328 28.2439 53.6229 28L52.147 26.8387C50.2887 25.3768 49.1941 23.0813 49.1953 20.6439V15.4839H49.6799C52.4508 15.4839 55.0373 14.031 56.5746 11.6129C58.1107 14.031 60.6984 15.4839 63.4693 15.4839H63.9527L63.9539 20.6452C63.9539 23.0826 62.8605 25.3768 61.0022 26.8387L59.5263 28C59.2164 28.2439 59.0344 28.6258 59.0344 29.0323V32.2581L64.3253 33.4916C65.1174 33.6761 65.8541 33.9935 66.5207 34.4129C68.7443 32.7265 70.1033 30.0052 70.1033 27.0968V14.1935C70.1033 6.36774 64.0338 0 56.5746 0Z" fill="#FCC53B"/>
<path d="M10.1155 16.8981C10.5226 16.0619 11.3429 15.4839 12.2985 15.4839H14.7583L14.8653 15.4284C16.4236 14.6103 17.8453 13.5355 19.0776 12.2426L19.6778 11.6129C22.0404 14.0916 25.2443 15.4839 28.5859 15.4839H29.5169H31.9767C32.8228 15.4839 33.5693 15.9329 34.0109 16.6155L34.1166 16.4374C35.1301 14.7303 35.6663 12.7639 35.6663 10.7523C35.6663 4.82323 31.069 0 25.4177 0H19.8783C17.2451 0 14.8936 1.62323 13.8334 4.10323C10.7267 5.21548 8.60889 8.27742 8.60889 11.7716V12.0761C8.60889 13.7045 9.07009 15.2774 9.94085 16.6245L10.1155 16.8981Z" fill="#FCC53B"/>
<path d="M73.5224 51.7625C73.6933 51.3161 73.793 50.8322 73.793 50.3225V40C73.793 37.8658 72.1375 36.129 70.1033 36.129H69.9348C68.7098 34.1535 66.8035 32.7471 64.591 32.2322L60.2642 31.2232V29.0322L61.7401 27.8709C63.8961 26.1754 65.1838 23.4735 65.1838 20.6451L65.1825 14.1935H63.4681C61.1043 14.1935 58.9089 12.9612 57.5979 10.8967L56.5746 9.28641L55.5513 10.8967C54.2403 12.9612 52.0449 14.1935 49.6811 14.1935H47.9654V20.6425C47.9654 23.4709 49.2519 26.1742 51.4091 27.8709L52.885 29.0322V31.2232L48.557 32.2322C44.5882 33.1574 41.816 36.7832 41.816 41.049V42.5806C41.816 45.6954 43.9326 48.3019 46.7355 48.9019V49.0322C46.7355 49.9767 46.9963 50.8503 47.4194 51.6129H39.1287C39.2677 51.2077 39.3562 50.7767 39.3562 50.3225V40C39.3562 37.8658 37.7008 36.129 35.6666 36.129H35.4981C34.2731 34.1535 32.3668 32.7471 30.1543 32.2322L25.8275 31.2232V29.0322L27.3034 27.8709C29.1273 26.4361 30.3203 24.2787 30.6474 21.9354H31.9769C34.0112 21.9354 35.6666 20.1987 35.6666 18.0645C35.6666 15.9303 34.0112 14.1935 31.9769 14.1935H30.7458H29.5172H28.5862C25.5496 14.1935 22.695 12.9535 20.5476 10.7006L19.6781 9.78834L18.2084 11.3303C17.1273 12.4645 15.8889 13.4064 14.445 14.1935H12.2988C10.2646 14.1935 8.60918 15.9303 8.60918 18.0645C8.60918 20.1987 10.2646 21.9354 12.2988 21.9354H13.6283C13.9555 24.2774 15.1472 26.4348 16.9711 27.8709L18.4482 29.0322V31.2232L14.1203 32.2322C10.1515 33.1574 7.3793 36.7832 7.3793 41.049V42.5806C7.3793 45.6954 9.49592 48.3019 12.2988 48.9019V49.0322C12.2988 49.9767 12.5596 50.8503 12.9826 51.6129H2.45977C1.1032 51.6129 0 52.7703 0 54.1935V80H73.793V59.3548C75.1495 59.3548 76.2527 58.1974 76.2527 56.7742V55.4838C76.2527 53.6993 75.0905 52.2077 73.5224 51.7625ZM31.9769 16.7741C32.6546 16.7741 33.2068 17.3535 33.2068 18.0645C33.2068 18.7754 32.6546 19.3548 31.9769 19.3548H30.7471V16.7741H31.9769ZM59.0344 46.4516V40C59.0344 39.289 59.5866 38.7096 60.2642 38.7096H61.4941V46.4516H59.0344ZM63.9539 49.0322H71.3332V50.3225C71.3332 51.0335 70.781 51.6129 70.1033 51.6129H63.7276C63.8653 51.2077 63.9539 50.7767 63.9539 50.3225V49.0322ZM71.3332 40V46.4516H63.9539V38.7096H70.1033C70.781 38.7096 71.3332 39.289 71.3332 40ZM52.885 25.8064C51.3439 24.5948 50.4252 22.6632 50.4252 20.6438V16.7445C52.7792 16.5522 54.9635 15.4529 56.5746 13.6735C58.1857 15.4529 60.3688 16.5509 62.7228 16.7445L62.724 20.6451C62.724 22.6658 61.8041 24.5948 60.2642 25.8064L58.7896 26.9664C58.1734 27.4503 57.8045 28.2232 57.8045 29.0322V31.7238C57.1576 32.4025 55.9941 32.4038 55.3447 31.7238V29.0322C55.3447 28.2245 54.977 27.4516 54.3608 26.9677L52.885 25.8064ZM49.092 34.7509L53.7434 33.6671C54.5195 34.4167 55.5132 34.8387 56.5746 34.8387C57.636 34.8387 58.6297 34.4167 59.407 33.6671L64.0584 34.7509C65.0423 34.9806 65.9377 35.4619 66.6892 36.129H60.2642C58.23 36.129 56.5746 37.8658 56.5746 40V46.4516H54.1148V45.1612C54.1148 43.0271 52.4594 41.2903 50.4252 41.2903V40.3045C50.4252 39.8129 50.6859 39.3703 51.1053 39.1509L52.2061 38.5742L51.1053 36.2658L50.0046 36.8425C48.7464 37.5019 47.9654 38.8296 47.9654 40.3045V41.2903H44.2758V41.049C44.2758 38.0025 46.2559 35.4116 49.092 34.7509ZM44.5021 43.8709H47.9654H49.1953H50.4252C51.1029 43.8709 51.6551 44.4503 51.6551 45.1612V46.4516H47.9654C46.3641 46.4516 45.0112 45.369 44.5021 43.8709ZM49.1953 49.0322H57.8045H61.4941V50.3225C61.4941 51.0335 60.9419 51.6129 60.2642 51.6129H57.8045H51.6551C50.2985 51.6129 49.1953 50.4554 49.1953 49.0322ZM24.5977 46.4516V40C24.5977 39.289 25.1499 38.7096 25.8275 38.7096H27.0574V46.4516H24.5977ZM29.5172 49.0322H36.8965V50.3225C36.8965 51.0335 36.3443 51.6129 35.6666 51.6129H29.2909C29.4286 51.2077 29.5172 50.7767 29.5172 50.3225V49.0322ZM36.8965 40V46.4516H29.5172V38.7096H35.6666C36.3443 38.7096 36.8965 39.289 36.8965 40ZM11.0689 18.0645C11.0689 17.3535 11.6212 16.7741 12.2988 16.7741H13.5287V19.3548H12.2988C11.6212 19.3548 11.0689 18.7754 11.0689 18.0645ZM18.4482 25.8064C16.9072 24.5948 15.9885 22.6632 15.9885 20.6438V16.2683C17.3463 15.489 18.5958 14.5251 19.7126 13.3961C22.1207 15.5174 25.1154 16.7006 28.2861 16.7716L28.2873 20.6451C28.2873 22.6658 27.3673 24.5948 25.8275 25.8064L24.3529 26.9664C23.7367 27.4503 23.3678 28.2232 23.3678 29.0322V31.7238C22.7209 32.4025 21.5574 32.4038 20.908 31.7238V29.0322C20.908 28.2245 20.5403 27.4516 19.9241 26.9677L18.4482 25.8064ZM14.6553 34.7509L19.3067 33.6671C20.0828 34.4167 21.0765 34.8387 22.1379 34.8387C23.1993 34.8387 24.193 34.4167 24.9703 33.6671L29.6217 34.7509C30.6056 34.9806 31.501 35.4619 32.2524 36.129H25.8275C23.7933 36.129 22.1379 37.8658 22.1379 40V46.4516H19.6781V45.1612C19.6781 43.0271 18.0227 41.2903 15.9885 41.2903V40.3045C15.9885 39.8129 16.2492 39.3703 16.6686 39.1509L17.7693 38.5742L16.6686 36.2658L15.5679 36.8425C14.3097 37.5019 13.5287 38.8296 13.5287 40.3045V41.2903H9.83906V41.049C9.83906 38.0025 11.8192 35.4116 14.6553 34.7509ZM10.0654 43.8709H13.5287H14.7586H15.9885C16.6661 43.8709 17.2184 44.4503 17.2184 45.1612V46.4516H13.5287C11.9274 46.4516 10.5745 45.369 10.0654 43.8709ZM14.7586 49.0322H23.3678H27.0574V50.3225C27.0574 51.0335 26.5052 51.6129 25.8275 51.6129H23.3678H17.2184C15.8618 51.6129 14.7586 50.4554 14.7586 49.0322ZM2.45977 59.3548H14.7586V60.6451V77.4193H2.45977V59.3548ZM66.4137 77.4193H63.9539V65.8064C63.9539 63.3458 63.0093 61.1148 61.4831 59.4838C64.2909 60.0787 66.4137 62.6864 66.4137 65.8064V77.4193ZM61.4941 65.8064V77.4193H56.5746V66.3406L58.674 64.138L56.935 62.3135L54.8355 64.5161H52.885C50.8507 64.5161 49.1953 62.7793 49.1953 60.6451V59.3548H55.3447C58.7355 59.3548 61.4941 62.249 61.4941 65.8064ZM34.4367 77.4193H31.9769V65.8064C31.9769 63.3458 31.0324 61.1148 29.5061 59.4838C32.3139 60.0787 34.4367 62.6864 34.4367 65.8064V77.4193ZM36.8965 67.0967H52.885H54.1148V69.6774H36.8965V67.0967ZM36.8965 72.258H54.1148V77.4193H36.8965V72.258ZM47.9974 64.5161H36.7981C36.5226 62.5071 35.6223 60.7109 34.3002 59.3548H46.7355V60.6451C46.7355 62.1032 47.2164 63.4348 47.9974 64.5161ZM29.5172 65.8064V77.4193H24.5977V66.3406L26.6971 64.138L24.958 62.3135L22.8586 64.5161H20.908C18.8738 64.5161 17.2184 62.7793 17.2184 60.6451V59.3548H23.3678C26.7586 59.3548 29.5172 62.249 29.5172 65.8064ZM22.1379 69.6774H17.2184V65.7729C18.249 66.5922 19.5182 67.0967 20.908 67.0967H22.1379V69.6774ZM17.2184 72.258H22.1379V77.4193H17.2184V72.258ZM71.3332 77.4193H68.8734V65.8064C68.8734 63.28 67.8772 60.9961 66.2784 59.3548H71.3332V77.4193ZM73.793 56.7742H2.45977V54.1935H17.2184H23.3678H25.8275H35.6666H51.6551H57.8045H60.2642H70.1033H72.5631C73.2407 54.1935 73.793 54.7729 73.793 55.4838V56.7742Z" fill="black"/>
</svg>
