<svg width="80" height="80" viewBox="0 0 80 80" fill="none" xmlns="http://www.w3.org/2000/svg">
<path d="M60.2643 72.7618C66.3775 72.7618 71.3332 67.7065 71.3332 61.4704C71.3332 55.2343 66.3775 50.179 60.2643 50.179C54.151 50.179 49.1953 55.2343 49.1953 61.4704C49.1953 67.7065 54.151 72.7618 60.2643 72.7618Z" fill="#FCC53B"/>
<path d="M4.91992 47.6698H31.9773V58.9612H4.91992V47.6698Z" fill="#FCC53B"/>
<path d="M12.1045 72.6526L10.9803 69.7871C10.7934 69.3104 10.342 68.998 9.83901 68.998C9.33598 68.998 8.88462 69.3104 8.69644 69.7859L7.57233 72.6514L6.10139 67.3971L3.73633 68.0871L6.19609 76.8693C6.33999 77.385 6.79013 77.75 7.31529 77.7776C7.85275 77.8165 8.32502 77.4891 8.52057 76.991L9.83901 73.6299L11.1562 76.991C11.3444 77.469 11.797 77.7789 12.2975 77.7789C12.3184 77.7789 12.3394 77.7789 12.3615 77.7776C12.8867 77.7513 13.3368 77.385 13.4807 76.8693L15.9405 68.0871L13.5754 67.3971L12.1045 72.6526Z" fill="black"/>
<path d="M25.633 72.6526L24.5089 69.7871C24.322 69.3116 23.8694 68.9992 23.3664 68.9992C22.8633 68.9992 22.412 69.3116 22.2238 69.7871L21.0997 72.6526L19.6287 67.3983L17.2637 68.0884L19.7234 76.8706C19.8673 77.3862 20.3175 77.7513 20.8426 77.7789C21.3887 77.8178 21.8524 77.4903 22.0479 76.9923L23.3676 73.6299L24.6848 76.991C24.873 77.469 25.3256 77.7789 25.8261 77.7789C25.847 77.7789 25.8679 77.7789 25.8901 77.7776C26.4152 77.7513 26.8654 77.3849 27.0093 76.8693L29.469 68.0871L27.104 67.3971L25.633 72.6526Z" fill="black"/>
<path d="M39.1623 72.6526L38.0382 69.7871C37.8513 69.3116 37.3987 68.9992 36.8956 68.9992C36.3926 68.9992 35.9413 69.3116 35.7531 69.7871L34.629 72.6526L33.158 67.3983L30.793 68.0884L33.2527 76.8706C33.3966 77.3862 33.8468 77.7513 34.3719 77.7789C34.9118 77.8178 35.3817 77.4903 35.5772 76.9923L36.8969 73.6299L38.2141 76.991C38.4023 77.469 38.8549 77.7789 39.3554 77.7789C39.3763 77.7789 39.3972 77.7789 39.4194 77.7776C39.9445 77.7513 40.3947 77.3849 40.5386 76.8693L42.9983 68.0871L40.6333 67.3971L39.1623 72.6526Z" fill="black"/>
<path d="M25.8887 12.6038L27.6277 14.3778C30.0248 11.9326 33.9272 11.9326 36.3242 14.3778L38.0633 12.6038C34.7069 9.18 29.2463 9.18 25.8887 12.6038Z" fill="black"/>
<path d="M60.2643 45.1607C59.8486 45.1607 59.4415 45.192 59.0344 45.2246V17.5595H35.4403C34.9311 16.1029 33.5783 15.0503 31.977 15.0503C30.3756 15.0503 29.0228 16.1029 28.5136 17.5595H0V65.2342H44.7222C46.3949 72.4156 52.7189 77.7802 60.2643 77.7802C69.0801 77.7802 76.2527 70.4634 76.2527 61.4704C76.2527 52.4775 69.0801 45.1607 60.2643 45.1607ZM60.2643 75.271C58.9421 75.271 57.5339 73.3552 56.5635 70.2526H63.965C62.9946 73.3552 61.5864 75.271 60.2643 75.271ZM55.9363 67.7434C55.6362 66.2266 55.4345 64.5404 55.3705 62.725H65.158C65.094 64.5404 64.8911 66.2266 64.5922 67.7434H55.9363ZM46.7983 62.725H52.912C52.9686 64.5053 53.1383 66.1915 53.415 67.7434H48.2286C47.4587 66.2116 46.9569 64.5191 46.7983 62.725ZM63.965 52.6882H56.5635C57.5339 49.5856 58.9434 47.6699 60.2643 47.6699C61.5851 47.6699 62.9946 49.5856 63.965 52.6882ZM64.5922 55.1974C64.8923 56.7143 65.094 58.4004 65.158 60.2158H55.3705C55.4345 58.4004 55.6374 56.7143 55.9363 55.1974H64.5922ZM53.9857 52.6882H49.8361C51.3685 50.7976 53.3917 49.3435 55.6952 48.4966C55.0163 49.6496 54.4383 51.0635 53.9857 52.6882ZM48.2286 55.1974H53.415C53.1383 56.7494 52.9674 58.4356 52.912 60.2158H46.7983C46.9569 58.4205 47.4587 56.7293 48.2286 55.1974ZM67.6165 62.725H73.7302C73.5704 64.5191 73.0698 66.2116 72.2987 67.7434H67.1122C67.3902 66.1915 67.5611 64.5053 67.6165 62.725ZM67.6165 60.2158C67.5599 58.4356 67.3902 56.7494 67.1135 55.1974H72.2999C73.0698 56.7293 73.5716 58.4218 73.7315 60.2158H67.6165ZM70.6924 52.6882H66.5428C66.0902 51.0635 65.5122 49.6496 64.832 48.4966C67.1368 49.3435 69.1588 50.7976 70.6924 52.6882ZM31.977 17.5595C32.6546 17.5595 33.2068 18.1228 33.2068 18.8141C33.2068 19.5054 32.6546 20.0687 31.977 20.0687C31.2993 20.0687 30.7471 19.5054 30.7471 18.8141C30.7471 18.1228 31.2993 17.5595 31.977 17.5595ZM28.5136 20.0687C29.0228 21.5253 30.3756 22.5779 31.977 22.5779C33.5783 22.5779 34.9311 21.5253 35.4403 20.0687H56.5746V27.5963H2.45977V20.0687H28.5136ZM2.45977 62.725V30.1055H56.5746V45.6161C49.5348 47.3223 44.2758 53.7735 44.2758 61.4704C44.2758 61.8945 44.3065 62.3098 44.3385 62.725H2.45977ZM49.8361 70.2526H53.9857C54.4383 71.8773 55.0163 73.2913 55.6965 74.4442C53.3917 73.5961 51.3697 72.1433 49.8361 70.2526ZM64.832 74.4442C65.5122 73.2913 66.0902 71.8773 66.5428 70.2526H70.6924C69.1588 72.1433 67.1368 73.5961 64.832 74.4442Z" fill="black"/>
<path d="M14.7588 22.5779H17.2186V25.0871H14.7588V22.5779Z" fill="black"/>
<path d="M9.83887 22.5779H12.2986V25.0871H9.83887V22.5779Z" fill="black"/>
<path d="M4.91992 22.5779H7.37969V25.0871H4.91992V22.5779Z" fill="black"/>
<path d="M41.5425 9.0559C36.2675 3.67493 27.6841 3.67493 22.4092 9.0559L24.1482 10.8299C28.4651 6.42752 35.4865 6.42752 39.8034 10.8299L41.5425 9.0559Z" fill="black"/>
<path d="M43.2821 7.28188L45.0211 5.50788C37.8276 -1.83026 26.1252 -1.83026 18.9316 5.50788L20.6707 7.28188C26.905 0.922325 37.049 0.922325 43.2821 7.28188Z" fill="black"/>
<path d="M19.6785 32.6146H4.91992V45.1606H19.6785V32.6146ZM17.2187 42.6514H7.37969V35.1238H17.2187V42.6514Z" fill="black"/>
<path d="M22.1377 45.1606H36.8963V32.6146H22.1377V45.1606ZM24.5975 35.1238H34.4365V42.6514H24.5975V35.1238Z" fill="black"/>
<path d="M54.115 32.6146H39.3564V45.1606H54.115V32.6146ZM51.6553 42.6514H41.8162V35.1238H51.6553V42.6514Z" fill="black"/>
<path d="M4.91992 47.6698H7.37969V50.179H4.91992V47.6698Z" fill="black"/>
<path d="M9.83887 47.6698H36.8963V50.179H9.83887V47.6698Z" fill="black"/>
<path d="M4.91992 52.6882H31.9773V55.1974H4.91992V52.6882Z" fill="black"/>
<path d="M4.91992 57.7066H31.9773V60.2158H4.91992V57.7066Z" fill="black"/>
</svg>
